<svg width="239" height="240" viewBox="0 0 239 240" fill="none" xmlns="http://www.w3.org/2000/svg">
<g clip-path="url(#clip0_4721_63383)">
<path d="M-231.642 153.59C-228.812 136.56 -210.962 116.97 -201.582 99.21C-192.191 81.45 -153.402 52.19 -128.432 35.8C-103.472 19.41 -98.2415 13.61 -31.2615 4.24998C35.7285 -5.10002 47.8485 3.51998 81.7385 5.98998C115.618 8.45998 147.408 34.94 165.778 53.05C184.148 71.16 203.488 99.02 213.548 117.45C223.608 135.89 227.778 167.83 230.568 192.18C233.778 220.16 244.338 238.15 235.678 276.2C227.018 314.25 238.568 318.08 228.868 346.4C219.168 374.72 216.468 358.57 202.878 387.96C190.168 415.45 176.158 412.7 125.998 442.96C60.9885 482.18 38.7385 474.81 7.21848 475.59C-46.0815 476.9 -73.8515 470.06 -73.8515 470.06C-73.8515 470.06 -117.002 464.31 -140.102 446.34C-163.202 428.37 -159.392 456.54 -202.222 369.65C-249.492 273.77 -237.812 290.27 -240.652 251.4C-243.612 210.91 -240.542 207.26 -231.622 153.57L-231.642 153.59ZM-225.492 232.07C-222.732 254.29 -233.112 291.57 -200.212 348.27C-154.642 426.81 -165.022 402.24 -143.362 419.08C-121.712 435.92 -83.4415 452.05 -83.4415 452.05C-83.4415 452.05 -1.10153 486.9 92.8285 439.61C145.328 413.18 171.128 405.23 183.038 379.46C195.778 351.91 198.308 367.05 207.398 340.5C216.488 313.95 209.118 288.02 217.238 252.35C225.348 216.68 224.048 217.53 217.778 191.89C211.508 166.25 202.458 143.18 193.038 125.9C183.608 108.62 181.858 97.27 164.648 80.29C147.438 63.31 101.248 23.73 69.4885 21.42C37.7285 19.11 26.3585 11.02 -36.4315 19.79C-99.2215 28.56 -104.122 34 -127.512 49.36C-150.912 64.72 -187.282 92.15 -196.072 108.8C-204.872 125.45 -204.822 131 -210.942 145.99C-217.062 160.97 -223.462 150.59 -221.172 178.69C-218.872 206.78 -228.252 209.86 -225.482 232.08L-225.492 232.07Z" fill="#EABD75"/>
<path d="M3.70949 140.14C-50.7905 142.99 -89.1405 187.01 -86.3305 240.69C-83.5205 294.37 -49.1005 325.25 -4.46053 327.67C70.2095 331.71 105.339 278.96 101.849 225.32C99.0195 181.87 58.2095 137.29 3.70949 140.14Z" fill="#B25B52"/>
<path d="M79.522 211.2C70.942 167.7 33.2819 145.44 -9.56805 153.9C-52.4181 162.35 -72.228 201.82 -69.028 238C-63.6581 298.52 -22.158 314.91 20.572 305.92C55.192 298.63 88.0919 254.71 79.5119 211.21L79.522 211.2Z" fill="#CC8569"/>
<path d="M65.2384 217.13C58.7684 184.34 26.9384 163 -5.85159 169.47C-38.6416 175.94 -59.9816 207.77 -53.5116 240.56C-47.0416 273.35 -15.2116 294.69 17.5784 288.22C50.3684 281.75 71.7084 249.92 65.2384 217.13Z" fill="#EABD75"/>
<path d="M64.699 238.77C65.009 238.81 65.169 238.27 64.879 238.14L64.699 238.77Z" fill="#B25B52"/>
<path d="M62.9191 235.92L63.1691 235.81C62.6691 236.51 62.1691 237.21 61.6691 237.9L61.7491 237.62C61.8891 238.47 62.0291 239.31 62.1691 240.16L62.0191 239.93C59.6491 236.3 65.3691 232.74 67.7391 236.37C68.8391 238.06 68.4491 240.73 66.4791 241.63C64.8291 242.39 62.8891 242.23 61.8391 240.55C60.9691 239.16 61.2591 236.68 62.9191 235.91V235.92Z" fill="#B25B52"/>
<path d="M65.7996 229.89C65.8696 229.33 65.6496 228.75 65.2396 228.37L65.7996 229.89Z" fill="#B25B52"/>
<path d="M62.4397 229.99C62.6097 230.28 62.7897 230.56 62.9597 230.85C61.7697 229.47 61.4297 227.54 62.7697 226.09C63.8897 224.87 66.3297 224.51 67.5297 225.9C68.5497 227.08 69.1797 228.2 69.1797 229.8C69.1797 234.12 62.4497 234.34 62.4497 229.99H62.4397Z" fill="#B25B52"/>
<path d="M64.4417 221.14C64.5417 220.58 64.6517 220.02 64.7617 219.46L64.4417 221.14Z" fill="#B25B52"/>
<path d="M61.1619 220.38C61.2619 219.82 61.3719 219.26 61.4819 218.7C62.2819 214.43 68.8419 215.97 68.0419 220.23C67.9419 220.79 67.8319 221.35 67.7219 221.91C66.9219 226.18 60.3619 224.64 61.1619 220.38Z" fill="#B25B52"/>
<path d="M61.9218 211.34C62.1118 210.71 62.0518 210 61.7618 209.4L61.9218 211.34Z" fill="#B25B52"/>
<path d="M58.6414 210.58C58.7614 210.98 58.7214 210.91 58.5314 210.36C57.8914 208.66 59.1514 206.67 60.8014 206.18C62.6514 205.63 64.3414 206.75 64.9814 208.45C65.4314 209.65 65.4414 210.86 65.1914 212.11C64.3414 216.37 57.7914 214.83 58.6314 210.58H58.6414Z" fill="#B25B52"/>
<path d="M58.1406 202.36C58.0206 201.74 57.9006 201.12 57.7706 200.5L58.1406 202.36Z" fill="#B25B52"/>
<path d="M54.9092 203.32C54.7892 202.7 54.6692 202.08 54.5392 201.46C54.1892 199.68 54.9492 197.83 56.8092 197.28C58.4292 196.8 60.6392 197.76 60.9892 199.55C61.1092 200.17 61.2292 200.79 61.3592 201.41C61.7092 203.19 60.9392 205.04 59.0892 205.59C57.4692 206.07 55.2592 205.11 54.9092 203.32Z" fill="#B25B52"/>
<path d="M51.0787 195.94C48.7887 192.26 54.4987 188.7 56.7887 192.38C59.0787 196.06 53.3687 199.62 51.0787 195.94Z" fill="#B25B52"/>
<path d="M48.8711 186.44C48.8111 186.13 48.7511 185.82 48.6911 185.51L48.8711 186.44Z" fill="#B25B52"/>
<path d="M45.6391 187.4C45.5791 187.09 45.5191 186.78 45.4591 186.47C45.1091 184.69 45.8691 182.84 47.7291 182.29C49.3491 181.81 51.5591 182.77 51.9091 184.56C51.9691 184.87 52.0291 185.18 52.0891 185.49C52.4391 187.27 51.6791 189.12 49.8191 189.67C48.1991 190.15 45.9891 189.19 45.6391 187.4Z" fill="#B25B52"/>
<path d="M40.8795 181.88C40.7195 181.48 40.8895 180.97 41.2695 180.76L40.8795 181.88Z" fill="#B25B52"/>
<path d="M37.5109 181.98C37.3409 180.69 37.8609 179.38 38.7909 178.48C41.8809 175.46 46.851 180.02 43.741 183.05L43.4409 183.35C43.7109 182.84 43.9809 182.34 44.2509 181.83V181.8C44.5009 183.6 42.6609 185.21 40.9809 185.26C39.0109 185.31 37.761 183.8 37.521 181.99L37.5109 181.98Z" fill="#B25B52"/>
<path d="M34.0508 176.78C34.0174 176.607 34.0174 176.607 34.0508 176.78V176.78Z" fill="#B25B52"/>
<path d="M31.1881 178.56C28.8981 174.88 34.608 171.32 36.898 175C39.188 178.68 33.4781 182.24 31.1881 178.56Z" fill="#B25B52"/>
<path d="M26.6991 173.7C26.4791 173.41 26.5191 172.96 26.7891 172.72L26.6991 173.7Z" fill="#B25B52"/>
<path d="M23.4716 174.65C23.0216 173.54 23.1716 172.15 23.8116 171.15C24.8016 169.62 26.6516 168.84 28.3616 169.74C29.8616 170.53 30.7616 172.75 29.7716 174.29L29.5816 174.59C29.7116 174.04 29.8416 173.48 29.9716 172.93L29.9316 172.75C30.6116 174.44 29.2816 176.45 27.6616 176.93C25.7816 177.49 24.1616 176.35 23.4816 174.66L23.4716 174.65Z" fill="#B25B52"/>
<path d="M17.1703 172.36L17.1103 172.05C16.7603 170.27 17.5303 168.42 19.3803 167.87C21.0003 167.39 23.2103 168.35 23.5603 170.14L23.6203 170.45C23.9703 172.23 23.2103 174.08 21.3503 174.63C19.7303 175.11 17.5203 174.15 17.1703 172.36Z" fill="#B25B52"/>
<path d="M8.03906 170.94C7.95906 170.53 7.87907 170.11 7.79907 169.7L8.03906 170.94Z" fill="#B25B52"/>
<path d="M4.81876 171.89C4.73876 171.48 4.65876 171.06 4.56876 170.65C4.21876 168.87 4.97874 167.02 6.83875 166.47C8.45875 165.99 10.6688 166.95 11.0188 168.74C11.0988 169.15 11.1788 169.57 11.2688 169.98C11.6188 171.76 10.8587 173.61 8.99875 174.16C7.37875 174.64 5.16876 173.68 4.81876 171.89Z" fill="#B25B52"/>
<path d="M-4.70808 170.35C-4.16808 169.29 -3.46808 168.55 -2.46808 167.92C1.19192 165.6 4.75192 171.31 1.09192 173.63L1.25193 173.48C-0.728074 177.34 -6.68808 174.2 -4.70808 170.34V170.35Z" fill="#B25B52"/>
<path d="M75.5584 232.71C75.6184 232.48 75.6784 232.25 75.7484 232.03C76.9084 227.86 83.4684 229.37 82.3084 233.56C82.2484 233.79 82.1784 234.02 82.1184 234.24C80.9584 238.41 74.3984 236.9 75.5684 232.72L75.5584 232.71Z" fill="#B4A49C"/>
<path d="M76.9008 224.8C76.8608 224.59 76.8208 224.39 76.7808 224.18C76.4308 222.4 77.1908 220.55 79.0508 220C80.6708 219.52 82.8808 220.48 83.2308 222.27C83.2708 222.48 83.3108 222.68 83.3508 222.89C83.7008 224.67 82.9408 226.52 81.0808 227.07C79.4608 227.55 77.2508 226.59 76.9008 224.8Z" fill="#B4A49C"/>
<path d="M76.4388 212.12L76.6688 211.82C76.4188 212.9 76.1688 213.98 75.9188 215.06L75.8488 214.69C75.5188 212.9 76.2488 211.06 78.1188 210.51C79.7188 210.03 81.9788 210.98 82.2988 212.78C82.5888 214.38 82.3988 215.39 81.3788 216.69C80.2588 218.12 77.8788 218.04 76.6188 216.88C75.1888 215.56 75.2988 213.56 76.4288 212.12H76.4388Z" fill="#B4A49C"/>
<path d="M73.9086 204.74C73.8286 204.33 73.7486 203.91 73.6586 203.5C73.3086 201.72 74.0686 199.87 75.9286 199.32C77.5486 198.84 79.7586 199.8 80.1086 201.59C80.1886 202 80.2686 202.42 80.3586 202.83C80.7086 204.61 79.9486 206.46 78.0886 207.01C76.4686 207.49 74.2586 206.53 73.9086 204.74Z" fill="#B4A49C"/>
<path d="M71.5101 195.85L71.4501 195.54C71.1001 193.76 71.8602 191.91 73.7202 191.36C75.3402 190.88 77.5501 191.84 77.9001 193.63L77.9602 193.94C78.3102 195.72 77.5502 197.57 75.6902 198.12C74.0702 198.6 71.8601 197.64 71.5101 195.85Z" fill="#B4A49C"/>
<path d="M69.3107 191.22C68.1907 190.23 67.5207 189.1 67.0107 187.71C66.3807 186 67.6207 184.02 69.2807 183.53C71.1207 182.98 72.8307 184.09 73.4607 185.8C73.5607 186.08 73.4607 185.91 73.8707 186.27C77.1107 189.16 72.5407 194.1 69.3107 191.22Z" fill="#B4A49C"/>
<path d="M63.0414 182.35C63.0014 182.14 62.9614 181.94 62.9214 181.73C62.5714 179.95 63.3414 178.1 65.1914 177.55C66.8114 177.07 69.0214 178.03 69.3714 179.82C69.4114 180.03 69.4514 180.23 69.4914 180.44C69.8414 182.22 69.0814 184.07 67.2214 184.62C65.6014 185.1 63.3914 184.14 63.0414 182.35Z" fill="#B4A49C"/>
<path d="M64.5486 173.35L64.6086 173.66C64.9586 175.44 64.1986 177.29 62.3386 177.84C60.7186 178.32 58.5086 177.36 58.1586 175.57L58.0986 175.26C57.7486 173.48 58.5186 171.63 60.3686 171.08C61.9886 170.6 64.1986 171.56 64.5486 173.35Z" fill="#B4A49C"/>
<path d="M52.3799 170.99L52.0099 170.74C50.4999 169.73 49.6899 167.92 50.5999 166.19C51.3799 164.71 53.6299 163.76 55.1499 164.78L55.5199 165.03C57.0299 166.04 57.8399 167.85 56.9299 169.58C56.1499 171.06 53.8999 172.01 52.3799 170.99Z" fill="#B4A49C"/>
<path d="M44.9719 166C44.5619 165.54 44.1519 165.09 43.7319 164.63C42.5119 163.28 42.2219 161.29 43.5419 159.87C44.6919 158.63 47.0719 158.32 48.3019 159.68C48.7119 160.14 49.1219 160.59 49.5419 161.05C50.7619 162.4 51.0419 164.39 49.7319 165.81C48.5819 167.05 46.2019 167.36 44.9719 166Z" fill="#B4A49C"/>
<path d="M35.3304 161.93C33.0404 158.25 38.7504 154.69 41.0504 158.37C43.3404 162.05 37.6304 165.61 35.3304 161.93Z" fill="#B4A49C"/>
<path d="M27.4498 159.61C25.1598 155.93 30.8698 152.37 33.1598 156.05C35.4498 159.73 29.7398 163.29 27.4498 159.61Z" fill="#B4A49C"/>
<path d="M23.689 160.29C23.479 160.33 23.279 160.37 23.069 160.41C21.289 160.76 19.439 160 18.889 158.14C18.409 156.52 19.369 154.31 21.159 153.96C21.369 153.92 21.569 153.88 21.779 153.84C23.559 153.49 25.409 154.25 25.959 156.11C26.439 157.73 25.479 159.94 23.689 160.29Z" fill="#B4A49C"/>
<path d="M14.1291 160.45C12.7891 160.47 11.6191 160.2 10.4191 159.59C6.53905 157.64 9.68905 151.69 13.5591 153.63L13.9491 153.71C18.2791 153.64 18.4891 160.37 14.1391 160.44L14.1291 160.45Z" fill="#B4A49C"/>
<path d="M0.93981 159.35C-1.35019 155.67 4.35981 152.11 6.65981 155.79C8.94981 159.47 3.23981 163.03 0.93981 159.35Z" fill="#B4A49C"/>
<path d="M102.741 244.64L102.321 244.48C102.871 244.61 103.431 244.74 103.981 244.87L103.961 244.85C99.8213 246.13 97.9013 239.68 102.051 238.39C103.441 237.96 104.541 238.17 105.881 238.68C107.581 239.34 108.071 241.75 107.291 243.23C106.361 245 104.441 245.3 102.741 244.64Z" fill="white"/>
<path d="M98.5593 229.81C98.5193 229.96 99.1893 230.91 98.5293 230.11C97.3693 228.7 98.2093 226.34 99.6093 225.47C101.319 224.4 103.079 225.14 104.249 226.55C105.309 227.84 105.599 229.75 105.119 231.33C104.589 233.07 102.929 234.28 101.079 233.85C99.3993 233.46 98.0293 231.56 98.5693 229.81H98.5593Z" fill="white"/>
<path d="M98.0293 220.56C98.2193 221.01 98.3993 221.46 98.5893 221.92C97.3393 220.6 97.1093 218.56 98.3993 217.16C99.5693 215.89 101.899 215.64 103.159 216.97C104.479 218.36 105.189 220.18 104.589 222.09C104.039 223.82 102.419 225.04 100.549 224.61C98.8793 224.22 97.4893 222.31 98.0393 220.57L98.0293 220.56Z" fill="white"/>
<path d="M96.2516 211.24L96.3016 210.81C96.3116 211.38 96.3316 211.96 96.3516 212.53C96.1816 211.8 96.3216 211.94 96.7716 212.96C95.0916 212.27 94.5716 209.91 95.3616 208.41C96.2716 206.67 98.2216 206.31 99.9116 207C102.292 207.98 103.082 210.4 102.802 212.75C102.592 214.56 100.392 215.65 98.7616 215.27C96.8316 214.82 96.0316 213.04 96.2416 211.23L96.2516 211.24Z" fill="white"/>
<path d="M93.2416 200.21C93.0516 199.84 92.8816 199.46 92.6916 199.09C92.4716 198.67 91.8716 198.12 92.6216 198.75C93.7016 199 94.7816 199.25 95.8616 199.5L95.7716 199.52C96.4416 198.97 97.1216 198.41 97.7916 197.86L97.7316 198.01C97.0416 199.69 94.6816 200.21 93.1816 199.42C91.4416 198.5 91.0816 196.56 91.7716 194.87C92.6516 192.73 95.5616 192.36 97.1916 193.8C98.0616 194.57 98.4516 195.65 98.9716 196.65C99.8116 198.27 99.5216 200.27 97.8916 201.29C96.4416 202.19 94.0916 201.83 93.2516 200.21H93.2416Z" fill="white"/>
<path d="M87.8617 190.94C85.5717 187.26 91.2817 183.7 93.5817 187.38C95.8717 191.06 90.1617 194.62 87.8617 190.94Z" fill="white"/>
<path d="M82.6682 183.71C82.6582 182.7 83.0782 184.09 82.5282 183.24C80.1782 179.6 85.8982 176.04 88.2482 179.68C89.0082 180.85 89.3882 182.13 89.3982 183.52C89.4482 187.85 82.7182 188.06 82.6682 183.71Z" fill="white"/>
<path d="M78.1884 174.65L78.2784 174.38C78.2984 174.95 78.3084 175.53 78.3284 176.1L78.4784 176.41C78.9084 176.81 79.3384 177.21 79.7684 177.61L79.5084 177.5C77.8384 176.77 77.2984 174.48 78.0984 172.95C78.9984 171.24 80.9784 170.81 82.6484 171.54C84.3284 172.27 85.3384 174.41 84.7484 176.17C84.1784 177.89 82.5984 179.12 80.7084 178.69C79.0684 178.31 77.6184 176.38 78.1984 174.65H78.1884Z" fill="white"/>
<path d="M76.8888 165.31C77.8688 165.83 78.7688 166.47 79.4988 167.31C77.6588 168.45 75.8288 169.6 73.9888 170.74L73.8988 170.24C74.2088 170.75 74.5288 171.25 74.8388 171.76L74.5088 171.38C73.3288 170 72.9788 168.07 74.3188 166.62C75.4388 165.41 77.8888 165.04 79.0788 166.43C79.7288 167.19 80.2588 167.82 80.4488 168.83C80.7288 170.31 80.3488 171.8 78.9988 172.64C77.8388 173.36 75.8988 173.35 74.9388 172.26C74.5588 171.82 74.2588 171.54 73.7588 171.27C69.9188 169.25 73.0588 163.3 76.8988 165.31H76.8888Z" fill="white"/>
<path d="M65.4102 161.62L65.3102 161.46C64.2502 159.98 64.9102 157.74 66.3902 156.82C68.0202 155.81 69.9702 156.41 71.0302 157.9C71.7802 158.95 72.1202 160.15 72.1402 161.42C72.2002 165.75 65.4702 165.96 65.4102 161.61V161.62Z" fill="white"/>
<path d="M62.5009 153.55C67.1909 154.63 67.3409 161.65 62.3409 162.33C60.2209 162.62 58.0609 161.41 57.4309 159.29C56.8509 157.32 57.7609 154.89 59.6509 154C61.2909 153.23 63.2409 153.41 64.2909 155.08C65.1609 156.48 64.8709 158.94 63.2109 159.72C63.4809 159.23 63.7509 158.73 64.0209 158.24C63.8509 157.68 63.6809 157.12 63.5109 156.55L63.3809 156.41C62.8709 156.14 62.3709 155.87 61.8609 155.61C61.3209 155.8 60.7709 155.98 60.2309 156.17C59.9609 156.68 59.6909 157.18 59.4309 157.69C59.4709 158.09 59.5009 158.49 59.5409 158.89C59.9709 159.29 60.4009 159.69 60.8309 160.09L60.9809 160.11C56.7609 159.13 58.2809 152.57 62.5109 153.55H62.5009Z" fill="white"/>
<path d="M52.6519 154.51C52.1019 153.86 51.5519 153.21 51.0019 152.56C49.8319 151.17 49.4719 149.25 50.8119 147.8C51.9219 146.59 54.3919 146.21 55.5719 147.61C56.1219 148.26 56.6719 148.91 57.2219 149.56C58.3919 150.95 58.7619 152.87 57.4119 154.32C56.3019 155.52 53.8319 155.91 52.6519 154.51Z" fill="white"/>
<path d="M50.4515 151.84C48.1615 148.16 53.8715 144.6 56.1715 148.28C58.4615 151.96 52.7515 155.52 50.4515 151.84Z" fill="white"/>
<path d="M48.4508 145.9C49.3408 148.11 47.3508 150.53 45.1108 150.53C40.7908 150.53 40.5708 143.79 44.9208 143.8H45.0908C44.1308 144.4 43.1708 145 42.2108 145.6L42.3108 145.44C42.2308 146.28 42.1408 147.12 42.0608 147.96L42.0008 147.81C41.3208 146.12 42.6508 144.11 44.2708 143.63C46.1508 143.07 47.7708 144.21 48.4508 145.9Z" fill="white"/>
<path d="M41.5592 146.32C40.3392 147.04 39.1292 147.41 37.7092 147.46C33.3792 147.63 33.1792 140.9 37.5192 140.73L37.9992 140.6C41.7292 138.4 45.2992 144.11 41.5592 146.32Z" fill="white"/>
<path d="M33.0999 140.1C33.2299 141.33 32.7499 142.21 32.0199 143.14C30.8899 144.56 28.5298 144.5 27.2598 143.33C25.8398 142.02 25.9299 140 27.0699 138.57L27.2999 138.28C26.9999 139.07 26.6999 139.86 26.4099 140.66L26.3698 140.29C26.1798 138.48 27.9199 136.88 29.6399 136.83C31.5699 136.78 32.9099 138.29 33.0999 140.1Z" fill="white"/>
<path d="M15.7601 141.26C13.4701 137.58 19.1801 134.02 21.4801 137.7C23.7701 141.38 18.0601 144.94 15.7601 141.26Z" fill="white"/>
<path d="M3.15075 142.78C0.860748 139.1 6.57075 135.54 8.87075 139.22C11.1607 142.9 5.45075 146.46 3.15075 142.78Z" fill="white"/>
<path d="M2.69898 139.94C2.75898 139.71 2.82898 139.48 2.88898 139.26C4.04898 135.09 10.609 136.6 9.43899 140.79C9.37899 141.02 9.30898 141.24 9.24898 141.47C8.08898 145.64 1.52899 144.13 2.68899 139.94H2.69898Z" fill="white"/>
<path d="M-3.23988 141.46C-5.52988 137.78 0.180124 134.22 2.48012 137.9C4.77012 141.58 -0.939877 145.14 -3.23988 141.46Z" fill="white"/>
<path d="M0.259355 142.97C0.0493546 143.01 -0.15064 143.05 -0.360641 143.09C-2.14064 143.44 -3.99063 142.68 -4.54063 140.82C-5.02063 139.2 -4.06064 136.99 -2.27064 136.64C-2.06064 136.6 -1.86063 136.56 -1.65063 136.52C0.129366 136.17 1.97936 136.93 2.52936 138.79C3.00936 140.41 2.04935 142.62 0.259355 142.97Z" fill="white"/>
<path d="M-4.16956 141.64C-6.45956 137.96 -0.749563 134.4 1.55044 138.08C3.84044 141.76 -1.86956 145.32 -4.16956 141.64Z" fill="white"/>
<path d="M-5.97156 114.77C-5.30156 112.99 -3.51157 112.08 -1.71157 111.94C2.60843 111.62 2.79843 118.35 -1.52157 118.67C-1.02157 118.42 -0.521555 118.16 -0.0115556 117.91C-0.651556 119.61 -3.09156 120.09 -4.56156 119.32C-6.34156 118.39 -6.61156 116.48 -5.97156 114.77Z" fill="white"/>
<path d="M4.87138 112.31L5.18138 112.25C6.96138 111.9 8.81139 112.66 9.36139 114.52C9.84139 116.14 8.88139 118.35 7.09139 118.7L6.78139 118.76C5.00139 119.11 3.1514 118.35 2.6014 116.49C2.1214 114.87 3.08138 112.66 4.87138 112.31Z" fill="white"/>
<path d="M10.5908 113.8C11.1308 113.27 11.6808 112.74 12.2208 112.2C15.3108 109.18 20.2708 113.73 17.1708 116.77C16.6308 117.3 16.0808 117.83 15.5408 118.37C12.4508 121.39 7.49077 116.84 10.5908 113.8Z" fill="white"/>
<path d="M20.6515 113.73C23.5515 112.81 26.2015 114.93 26.4115 117.84C26.7215 122.16 19.9915 122.35 19.6815 118.03L19.6515 117.68C19.8215 118.24 19.9915 118.8 20.1615 119.36C20.5015 119.61 20.8315 119.87 21.1715 120.12C21.7415 120.1 22.3215 120.09 22.8915 120.07L22.5615 120.18C18.4315 121.49 16.5115 115.04 20.6515 113.72V113.73Z" fill="white"/>
<path d="M20.2289 119.72C17.9389 116.04 23.6489 112.48 25.9489 116.16C28.2389 119.84 22.5289 123.4 20.2289 119.72Z" fill="white"/>
<path d="M32.7109 117.78C33.7109 118.34 34.3408 118.98 35.0308 119.87C36.1508 121.31 35.3808 123.62 33.9508 124.51C32.2708 125.55 30.4308 124.87 29.3108 123.43L29.5608 123.74C25.7808 121.62 28.9208 115.66 32.7008 117.78H32.7109Z" fill="white"/>
<path d="M43.6788 124.65C43.6388 124.94 43.6088 125.23 43.5688 125.53C41.6488 124.51 39.7288 123.5 37.8188 122.48C38.0788 122.25 38.3488 122.02 38.6088 121.79C39.9788 120.6 41.9288 120.27 43.3688 121.6C44.5888 122.73 44.9388 125.16 43.5588 126.36C43.2988 126.59 43.0288 126.82 42.7688 127.05C40.1688 129.31 36.5788 127.45 37.0188 124C37.0588 123.71 37.0888 123.42 37.1288 123.12C37.3588 121.31 39.5288 120.22 41.1688 120.6C43.0888 121.05 43.9088 122.83 43.6888 124.64L43.6788 124.65Z" fill="white"/>
<path d="M49.9392 122.24C50.2092 122.5 50.4892 122.77 50.7592 123.03C53.8792 126.03 49.3192 130.99 46.1892 127.98C45.9192 127.72 45.6392 127.45 45.3692 127.19C42.2492 124.19 46.8092 119.23 49.9392 122.24Z" fill="white"/>
<path d="M56.9417 124.31L57.2517 124.25C59.0317 123.9 60.8817 124.66 61.4317 126.52C61.9117 128.14 60.9517 130.35 59.1617 130.7L58.8517 130.76C57.0717 131.11 55.2217 130.35 54.6717 128.49C54.1917 126.87 55.1517 124.66 56.9417 124.31Z" fill="white"/>
<path d="M66.9081 127.93C67.9681 128.36 69.0181 128.79 70.0781 129.22C71.7681 129.91 72.2781 132.27 71.4881 133.77C70.5681 135.51 68.6281 135.87 66.9381 135.18C65.8781 134.75 64.8281 134.32 63.7681 133.89C62.0781 133.2 61.5681 130.84 62.3581 129.34C63.2781 127.6 65.2181 127.24 66.9081 127.93Z" fill="white"/>
<path d="M75.5098 132.6L75.6198 132.62C76.6898 132.77 77.8899 133.87 78.0799 134.94L78.1099 135.09C78.3699 136.5 78.0399 138.14 76.6599 138.9L76.5598 138.96C72.7798 141.04 69.1999 135.34 72.9999 133.24L73.0999 133.19C72.6199 134.46 72.1298 135.73 71.6498 137L71.6198 136.85C72.4398 137.62 73.2598 138.4 74.0898 139.17L73.9798 139.15C72.1798 138.9 71.0799 136.76 71.4599 135.11C71.9099 133.2 73.6999 132.35 75.4999 132.59L75.5098 132.6Z" fill="white"/>
<path d="M78.0414 142.85C75.7514 139.17 81.4614 135.61 83.7614 139.29C86.0514 142.97 80.3414 146.53 78.0414 142.85Z" fill="white"/>
<path d="M84.8401 150.71C84.4801 150.55 84.1301 150.4 83.7701 150.24C85.1201 150.01 86.4701 149.78 87.8201 149.54L87.6601 149.68C87.9601 148.89 88.2501 148.1 88.5501 147.3L88.5301 147.52C88.3601 146.96 88.1901 146.4 88.0201 145.83L88.1201 146.03C87.4201 145.53 86.7201 145.03 86.0301 144.53L86.2301 144.59C87.9601 145.13 89.1801 146.77 88.7401 148.63C88.3501 150.31 86.4401 151.68 84.7001 151.15C82.2401 150.39 80.4901 146.98 82.8601 144.97C84.0901 143.92 85.4001 143.61 86.9001 144.28C87.2601 144.44 87.6101 144.59 87.9701 144.75C89.6301 145.48 90.1801 147.77 89.3801 149.3C88.4801 151.01 86.5001 151.44 84.8301 150.71H84.8401Z" fill="white"/>
<path d="M95.9398 159C93.4498 160.33 90.8798 159.36 89.9098 156.71C89.2798 155 90.5198 153.02 92.1798 152.53C94.0198 151.98 95.7298 153.09 96.3598 154.8L96.4798 155.11C95.9298 154.44 95.3698 153.76 94.8198 153.09L94.6298 153.03C93.7798 153.17 92.9398 153.31 92.0898 153.45L92.3798 153.29C93.9798 152.43 96.0098 152.75 97.0198 154.37C97.9298 155.84 97.5498 158.15 95.9398 159.01V159Z" fill="white"/>
<path d="M97.7389 165.29C96.7189 164.57 96.1889 163.24 96.2089 162.02C96.2689 157.7 102.999 157.48 102.939 161.83V162.19C102.759 161.63 102.599 161.07 102.429 160.51L102.309 160.34C103.789 161.39 103.619 163.88 102.499 165.1C101.129 166.58 99.2289 166.35 97.7389 165.29Z" fill="white"/>
<path d="M107.18 172.5C106.37 172.13 105.56 171.75 104.75 171.38C102.11 170.16 102.57 165.88 105.36 165.17C106.86 164.79 108.29 164.74 109.81 165.09C112.88 165.79 113.03 169.52 110.83 171.23C110.6 171.41 110.36 171.59 110.13 171.77C108.69 172.88 106.38 172.12 105.49 170.69C104.45 169.02 105.13 167.17 106.57 166.05C106.8 165.87 107.04 165.69 107.27 165.51C107.61 167.56 107.95 169.6 108.29 171.65C107.86 171.55 107.71 171.53 107.28 171.63C107.48 169.56 107.69 167.49 107.89 165.42C108.7 165.79 109.51 166.17 110.32 166.54C114.26 168.36 111.1 174.31 107.18 172.5Z" fill="white"/>
<path d="M116.082 180.41L115.922 180.49C114.502 181.24 113.102 181.08 111.862 180.11C109.792 178.49 110.322 175.11 112.622 174.04C114.982 172.94 117.292 174.29 118.262 176.49C118.742 177.57 118.182 178.89 117.512 179.73L117.362 179.91C116.612 180.85 115.252 181.13 114.122 180.91L113.932 180.87C109.672 180.02 111.212 173.46 115.452 174.31L115.642 174.35C114.562 174.68 113.482 175.01 112.402 175.35L112.552 175.17C112.302 176.25 112.052 177.33 111.802 178.41L111.722 178.23C112.272 178.9 112.822 179.58 113.382 180.25L113.542 180.28C114.112 180.26 114.692 180.25 115.262 180.23L114.952 180.31C115.622 179.76 116.302 179.21 116.972 178.65L116.882 178.85C116.962 178.01 117.052 177.17 117.132 176.33L117.212 176.55C116.902 176.04 116.582 175.54 116.262 175.03L116.422 175.16C115.072 175.03 113.712 174.9 112.362 174.78L112.522 174.7C114.132 173.85 116.152 174.16 117.162 175.78C118.072 177.24 117.702 179.56 116.082 180.42V180.41Z" fill="white"/>
<path d="M111.729 179.45C109.439 175.77 115.149 172.21 117.449 175.89C119.739 179.57 114.029 183.13 111.729 179.45Z" fill="white"/>
<path d="M116.571 185.94L116.511 185.79C117.621 186.59 118.721 187.4 119.831 188.2L119.641 188.18C120.201 188.01 120.761 187.84 121.331 187.67L121.161 187.76C121.691 186.78 122.221 185.79 122.751 184.81V184.97C122.721 189.29 115.991 189.51 116.021 185.16V185C116.031 183.87 116.551 182.6 117.611 182.05C118.261 181.71 118.891 181.41 119.651 181.47C121.321 181.61 122.321 182.36 122.971 183.88L123.031 184.03C123.741 185.7 122.361 187.74 120.761 188.21C118.851 188.78 117.291 187.62 116.581 185.94H116.571Z" fill="white"/>
<path d="M116.428 186.91C114.138 183.23 119.848 179.67 122.148 183.35C124.438 187.03 118.728 190.59 116.428 186.91Z" fill="white"/>
<path d="M125.869 195.04C124.779 197.49 121.269 198.09 119.429 196.15C118.179 194.83 117.949 192.79 119.239 191.39C120.409 190.12 122.739 189.87 123.999 191.2L124.209 191.42C123.699 191.15 123.199 190.88 122.689 190.62L122.979 190.7C122.409 190.72 121.829 190.73 121.259 190.75L120.999 190.9C120.599 191.33 120.199 191.76 119.799 192.19L119.919 191.92C120.659 190.26 122.929 189.7 124.469 190.51C126.169 191.41 126.619 193.39 125.879 195.06L125.869 195.04Z" fill="white"/>
<path d="M127.22 205.71C126.8 205.79 126.39 205.87 125.98 205.96C124.2 206.31 122.35 205.55 121.8 203.69C121.32 202.07 122.28 199.86 124.07 199.51C124.48 199.43 124.9 199.35 125.31 199.26C127.09 198.91 128.94 199.67 129.49 201.53C129.97 203.15 129.01 205.36 127.22 205.71Z" fill="white"/>
<path d="M131.571 214.77C130.411 215.4 129.301 215.76 127.971 215.77C126.231 215.79 124.461 214.35 124.511 212.5C124.531 211.66 124.501 210.85 124.401 210.01C124.191 208.2 125.971 206.6 127.671 206.55C129.621 206.5 130.921 208.01 131.131 209.82C131.231 210.65 131.261 211.47 131.241 212.31C130.091 211.22 128.941 210.13 127.781 209.04H128.011C131.801 207 135.391 212.7 131.571 214.77Z" fill="white"/>
<path d="M131.422 223.27L131.192 223.57C131.442 222.49 131.692 221.41 131.942 220.33L132.012 220.7C132.332 222.49 131.622 224.33 129.742 224.88C128.142 225.36 125.882 224.41 125.562 222.61C125.272 221.01 125.462 220 126.482 218.71C127.602 217.28 129.982 217.36 131.242 218.52C132.672 219.84 132.552 221.84 131.432 223.28L131.422 223.27Z" fill="white"/>
<path d="M126.421 228.37C126.601 228.17 126.781 227.96 126.971 227.76C129.461 224.98 134.461 228.31 132.421 231.61C131.811 232.6 131.161 233.37 130.131 233.93C128.531 234.79 126.501 234.47 125.491 232.85C124.581 231.38 124.961 229.08 126.571 228.21L126.471 228.47C128.291 229.75 130.111 231.04 131.921 232.32C131.741 232.52 131.561 232.73 131.371 232.93C128.471 236.16 123.531 231.59 126.421 228.36V228.37Z" fill="white"/>
<path d="M131.751 242.5C131.491 244.53 130.001 245.81 128.221 246.54C126.491 247.24 124.571 245.86 124.041 244.27C123.551 242.83 123.691 241.19 124.521 239.9C125.331 238.65 126.731 237.81 128.261 238.19C130.681 238.8 132.111 241.16 131.521 243.6C130.871 246.3 127.701 247.46 125.341 246.18C122.921 244.87 122.231 241.51 124.071 239.43C125.861 237.4 128.711 237.59 130.681 239.14C129.161 240.79 127.641 242.44 126.121 244.09C124.571 242.23 124.151 239.88 125.981 237.99C128.991 234.88 133.941 239.44 130.931 242.56L130.661 242.84C130.931 242.33 131.201 241.83 131.471 241.32L131.371 241.7C131.351 241.13 131.341 240.55 131.321 239.98L131.391 240.37C131.081 239.86 130.761 239.36 130.451 238.85L130.701 239.15C133.441 242.43 129.631 246.82 126.141 244.1L125.871 243.89C126.381 244.16 126.881 244.43 127.391 244.69C128.061 244.33 128.721 243.96 129.391 243.6C129.521 243.05 129.651 242.49 129.781 241.94C129.301 241.33 128.821 240.73 128.341 240.12C127.771 240.14 127.191 240.15 126.621 240.17L126.951 240.07C126.441 240.38 125.941 240.7 125.431 241.02C125.461 242.03 125.501 243.03 125.531 244.04C126.041 244.31 126.541 244.58 127.051 244.84L126.771 244.77C128.021 244.2 129.261 243.63 130.511 243.06C130.411 242.85 130.421 242.62 130.531 242.38C129.141 241.62 127.741 240.86 126.351 240.11C125.981 240.41 125.611 240.71 125.241 241.01C125.471 239.2 127.641 238.11 129.281 238.49C131.201 238.94 132.031 240.72 131.791 242.53L131.751 242.5Z" fill="white"/>
<path d="M135.69 239.46C135.8 239.03 135.91 238.61 136.02 238.18C138.05 230.38 150.24 233.4 148.21 241.23C148.1 241.66 147.99 242.08 147.88 242.51C145.86 250.31 133.66 247.29 135.7 239.46H135.69Z" fill="#4EAFA5"/>
<path d="M137.961 224.63C137.881 224.24 137.801 223.85 137.721 223.46C137.021 220.1 138.381 216.64 141.811 215.66C144.801 214.8 148.921 216.67 149.621 220.05C149.701 220.44 149.781 220.83 149.861 221.22C150.561 224.58 149.201 228.03 145.771 229.02C142.781 229.88 138.661 228.01 137.961 224.63Z" fill="#4EAFA5"/>
<path d="M136.751 200.78L137.171 200.23C136.741 202.25 136.301 204.27 135.871 206.3C135.831 206.07 135.781 205.84 135.741 205.6C135.091 202.23 136.371 198.79 139.831 197.8C142.781 196.95 146.981 198.8 147.641 202.19C148.231 205.21 147.891 207.09 146.051 209.51C144.021 212.17 139.611 211.96 137.241 209.74C134.561 207.22 134.711 203.46 136.751 200.79V200.78Z" fill="#4EAFA5"/>
<path d="M131.859 186.82C131.699 186.04 131.529 185.26 131.369 184.48C130.669 181.12 132.029 177.67 135.459 176.68C138.449 175.82 142.569 177.69 143.269 181.07C143.429 181.85 143.599 182.63 143.759 183.41C144.459 186.77 143.099 190.22 139.669 191.21C136.679 192.07 132.559 190.2 131.859 186.82Z" fill="#4EAFA5"/>
<path d="M127.16 170.05L127.04 169.46C126.34 166.1 127.7 162.64 131.13 161.66C134.12 160.8 138.24 162.67 138.94 166.05L139.06 166.64C139.76 170 138.4 173.45 134.97 174.44C131.98 175.3 127.86 173.43 127.16 170.05Z" fill="#4EAFA5"/>
<path d="M122.951 161.28C120.851 159.38 119.571 157.24 118.591 154.61C117.381 151.38 119.621 147.69 122.681 146.81C126.071 145.84 129.281 147.97 130.491 151.2C130.691 151.73 130.491 151.4 131.271 152.1C137.351 157.62 129.021 166.78 122.961 161.28H122.951Z" fill="#4EAFA5"/>
<path d="M111.09 144.44C111.01 144.05 110.93 143.66 110.85 143.27C110.15 139.91 111.51 136.46 114.94 135.47C117.93 134.61 122.05 136.48 122.75 139.86C122.83 140.25 122.91 140.64 122.99 141.03C123.69 144.39 122.33 147.85 118.9 148.83C115.91 149.69 111.79 147.82 111.09 144.44Z" fill="#4EAFA5"/>
<path d="M113.631 127.56L113.751 128.15C114.451 131.51 113.091 134.96 109.661 135.95C106.671 136.81 102.551 134.94 101.851 131.56L101.731 130.97C101.031 127.61 102.391 124.15 105.821 123.17C108.811 122.31 112.931 124.18 113.631 127.56Z" fill="#4EAFA5"/>
<path d="M91.0193 122.79C90.7893 122.63 90.5593 122.47 90.3193 122.31C87.4993 120.37 85.9493 116.94 87.5793 113.72C88.9793 110.97 93.1193 109.25 95.9593 111.2C96.1893 111.36 96.4193 111.52 96.6593 111.68C99.4793 113.62 101.029 117.05 99.3993 120.27C97.9993 123.02 93.8593 124.74 91.0193 122.79Z" fill="#4EAFA5"/>
<path d="M77.1608 113.19C76.3808 112.32 75.6108 111.45 74.8308 110.58C72.5408 108.01 71.9508 104.26 74.3408 101.63C76.4308 99.33 80.8408 98.82 83.1508 101.4C83.9308 102.27 84.7008 103.14 85.4808 104.01C87.7708 106.58 88.3608 110.33 85.9708 112.96C83.8808 115.26 79.4708 115.77 77.1608 113.19Z" fill="#4EAFA5"/>
<path d="M59.2099 105.27C54.8699 98.29 65.3399 91.76 69.6899 98.74C74.0299 105.72 63.5599 112.25 59.2099 105.27Z" fill="#4EAFA5"/>
<path d="M44.5498 100.69C40.2098 93.71 50.6798 87.18 55.0298 94.16C59.3698 101.14 48.8998 107.67 44.5498 100.69Z" fill="#4EAFA5"/>
<path d="M37.5999 101.87C37.2199 101.94 36.8399 102.01 36.4499 102.08C33.1599 102.69 29.7099 101.2 28.6399 97.69C27.6999 94.63 29.4199 90.5 32.7299 89.89C33.1099 89.82 33.4899 89.75 33.8799 89.68C37.1699 89.07 40.6199 90.56 41.6899 94.07C42.6299 97.13 40.9099 101.26 37.5999 101.87Z" fill="#4EAFA5"/>
<path d="M19.9003 101.89C17.4103 101.89 15.2403 101.34 13.0003 100.17C5.76031 96.3901 11.4303 85.2901 18.6403 89.0601L19.3603 89.2301C27.3703 89.2301 27.9403 101.88 19.9003 101.89Z" fill="#4EAFA5"/>
<path d="M-4.57135 99.46C-8.91135 92.48 1.55866 85.95 5.90866 92.93C10.2487 99.91 -0.221351 106.44 -4.57135 99.46Z" fill="#4EAFA5"/>
<path d="M26.5881 210.23C18.5281 210.23 18.5181 197.7 26.5881 197.7C34.6581 197.7 34.6581 210.23 26.5881 210.23Z" fill="white"/>
<path d="M37.4203 223.44C29.3603 223.44 29.3403 210.91 37.4203 210.91C45.5003 210.91 45.4903 223.44 37.4203 223.44Z" fill="white"/>
<path d="M42.5414 242.82C34.4814 242.82 34.4614 230.29 42.5414 230.29C50.6214 230.29 50.6114 242.82 42.5414 242.82Z" fill="white"/>
<path d="M-2.82969 203.39C-10.8897 203.39 -10.9097 190.86 -2.82969 190.86C5.25031 190.86 5.24031 203.39 -2.82969 203.39Z" fill="white"/>
<path d="M13.6391 206.15C5.57906 206.15 5.56906 193.62 13.6391 193.62C21.7091 193.62 21.7191 206.15 13.6391 206.15Z" fill="white"/>
<path d="M23.0091 243.16C18.9791 243.16 18.9691 236.9 23.0091 236.9C27.0491 236.9 27.0491 243.16 23.0091 243.16Z" fill="#F2E2D3"/>
<path d="M24.6692 236.06C20.6392 236.06 20.6292 229.8 24.6692 229.8C28.7092 229.8 28.7092 236.06 24.6692 236.06Z" fill="#F2E2D3"/>
<path d="M22.2591 228.01C18.2291 228.01 18.2191 221.75 22.2591 221.75C26.2991 221.75 26.2991 228.01 22.2591 228.01Z" fill="#F2E2D3"/>
<path d="M17.3489 221.53C13.3189 221.53 13.3089 215.27 17.3489 215.27C21.3889 215.27 21.3889 221.53 17.3489 221.53Z" fill="#F2E2D3"/>
<path d="M8.22 219.4C4.19 219.4 4.18 213.14 8.22 213.14C12.26 213.14 12.26 219.4 8.22 219.4Z" fill="#F2E2D3"/>
<path d="M-0.990937 219.93C-5.02094 219.93 -5.03094 213.67 -0.990937 213.67C3.04906 213.67 3.04906 219.93 -0.990937 219.93Z" fill="#F2E2D3"/>
<path d="M97.6817 101.6C93.4517 101.6 89.8517 97.9999 89.8517 93.7699C89.8517 89.5399 93.4317 85.9399 97.6817 85.9399C101.932 85.9399 105.512 89.5399 105.512 93.7699C105.512 97.9999 101.932 101.6 97.6817 101.6Z" fill="#B25B52"/>
<path d="M82.0919 90.4901C77.8619 90.4901 74.2619 86.8901 74.2619 82.6601C74.2619 78.4301 77.8419 74.8301 82.0919 74.8301C86.3419 74.8301 89.9219 78.4301 89.9219 82.6601C89.9219 86.8901 86.3419 90.4901 82.0919 90.4901Z" fill="#B25B52"/>
<path d="M61.4083 85.14C57.1783 85.14 53.5783 81.54 53.5783 77.31C53.5783 73.08 57.1583 69.48 61.4083 69.48C65.6583 69.48 69.2383 73.08 69.2383 77.31C69.2383 81.54 65.6583 85.14 61.4083 85.14Z" fill="#B25B52"/>
<path d="M37.1309 83.7701C32.9009 83.7701 29.3009 80.1701 29.3009 75.9401C29.3009 71.7101 32.8809 68.1101 37.1309 68.1101C41.3809 68.1101 44.9609 71.7101 44.9609 75.9401C44.9609 80.1701 41.3809 83.7701 37.1309 83.7701Z" fill="#B25B52"/>
<path d="M162.479 232.18C158.249 232.18 154.649 228.58 154.649 224.35C154.649 220.12 158.229 216.52 162.479 216.52C166.729 216.52 170.309 220.12 170.309 224.35C170.309 228.58 166.729 232.18 162.479 232.18Z" fill="#B25B52"/>
<path d="M161.592 208.45C157.362 208.45 153.762 204.85 153.762 200.62C153.762 196.39 157.342 192.79 161.592 192.79C165.842 192.79 169.422 196.39 169.422 200.62C169.422 204.85 165.842 208.45 161.592 208.45Z" fill="#B25B52"/>
<path d="M117.022 117.33C112.792 117.33 109.192 113.73 109.192 109.5C109.192 105.27 112.772 101.67 117.022 101.67C121.272 101.67 124.852 105.27 124.852 109.5C124.852 113.73 121.272 117.33 117.022 117.33Z" fill="#B25B52"/>
<path d="M159.998 180.78C155.768 180.78 152.168 177.18 152.168 172.95C152.168 168.72 155.748 165.12 159.998 165.12C164.248 165.12 167.828 168.72 167.828 172.95C167.828 177.18 164.248 180.78 159.998 180.78Z" fill="#B25B52"/>
<path d="M150.639 155.87C146.409 155.87 142.809 152.27 142.809 148.04C142.809 143.81 146.389 140.21 150.639 140.21C154.889 140.21 158.469 143.81 158.469 148.04C158.469 152.27 154.889 155.87 150.639 155.87Z" fill="#B25B52"/>
<path d="M134.979 135.65C130.749 135.65 127.149 132.05 127.149 127.82C127.149 123.59 130.729 119.99 134.979 119.99C139.229 119.99 142.809 123.59 142.809 127.82C142.809 132.05 139.229 135.65 134.979 135.65Z" fill="#B25B52"/>
<path d="M7.9088 80.2501C7.6088 80.1801 7.30879 80.1101 7.00879 80.0401C5.98879 79.8001 5.0988 79.3301 4.3488 78.6401C3.4988 78.0901 2.82879 77.3601 2.32879 76.4401C1.75879 75.5401 1.44878 74.5701 1.39878 73.5301C1.16879 72.4901 1.20878 71.4501 1.53878 70.4101C1.79878 69.7901 2.06879 69.1601 2.32879 68.5401C3.02879 67.3601 3.95879 66.4301 5.13879 65.7301C5.75879 65.4701 6.38879 65.2001 7.00879 64.9401C8.39879 64.5701 9.78879 64.5701 11.1688 64.9401C11.4688 65.0101 11.7688 65.0801 12.0688 65.1501C13.0888 65.3901 13.9788 65.8601 14.7288 66.5501C15.5788 67.1001 16.2488 67.8301 16.7488 68.7501C17.3188 69.6501 17.6288 70.6201 17.6788 71.6601C17.9088 72.7001 17.8688 73.7401 17.5388 74.7801C17.2788 75.4001 17.0088 76.0301 16.7488 76.6501C16.0488 77.8301 15.1188 78.7601 13.9388 79.4601C13.3088 79.7201 12.6888 79.9901 12.0688 80.2501C10.6788 80.6201 9.2888 80.6201 7.9088 80.2501Z" fill="#B25B52"/>
<path d="M195.37 234.8C187.31 234.8 187.3 222.27 195.37 222.27C203.44 222.27 203.45 234.8 195.37 234.8Z" fill="#B25B52"/>
<path d="M193.01 200.16C184.95 200.16 184.94 187.63 193.01 187.63C201.08 187.63 201.09 200.16 193.01 200.16Z" fill="#B25B52"/>
<path d="M182.362 164.53C174.302 164.53 174.292 152 182.362 152C190.432 152 190.442 164.53 182.362 164.53Z" fill="#B25B52"/>
<path d="M174.991 145.29C166.931 145.29 166.921 132.76 174.991 132.76C183.061 132.76 183.071 145.29 174.991 145.29Z" fill="#B25B52"/>
<path d="M187.651 180.44C179.591 180.44 179.581 167.91 187.651 167.91C195.721 167.91 195.731 180.44 187.651 180.44Z" fill="#B25B52"/>
<path d="M197.131 219.11C189.071 219.11 189.051 206.58 197.131 206.58C205.211 206.58 205.201 219.11 197.131 219.11Z" fill="#B25B52"/>
<path d="M163.209 122.66C155.149 122.66 155.129 110.13 163.209 110.13C171.289 110.13 171.279 122.66 163.209 122.66Z" fill="#B25B52"/>
<path d="M143.69 98.7C135.63 98.7 135.61 86.17 143.69 86.17C151.77 86.17 151.76 98.7 143.69 98.7Z" fill="#B25B52"/>
<path d="M123.6 81.24C115.54 81.24 115.53 68.71 123.6 68.71C131.67 68.71 131.67 81.24 123.6 81.24Z" fill="#B25B52"/>
<path d="M108.39 74.0799C108.09 74.0099 107.79 73.9399 107.49 73.8699C106.67 73.6799 105.97 73.2999 105.36 72.7499C104.68 72.3099 104.14 71.7199 103.75 70.9899C103.29 70.2699 103.04 69.4899 103.01 68.6599C102.82 67.8299 102.86 66.9999 103.12 66.1599C103.33 65.6599 103.54 65.1599 103.75 64.6599C104.31 63.7199 105.06 62.9699 106 62.4099C106.5 62.1999 107 61.9899 107.5 61.7799C108.61 61.4799 109.72 61.4799 110.83 61.7799C111.13 61.8499 111.43 61.9199 111.73 61.9899C112.54 62.1799 113.25 62.5599 113.86 63.1099C114.54 63.5499 115.08 64.1399 115.47 64.8699C115.93 65.5899 116.17 66.3599 116.21 67.1999C116.4 68.0299 116.36 68.8599 116.1 69.6999C115.89 70.1999 115.68 70.6999 115.47 71.1999C114.91 72.1399 114.16 72.8899 113.22 73.4499C112.72 73.6599 112.22 73.8699 111.73 74.0799C110.62 74.3799 109.51 74.3799 108.4 74.0799H108.39Z" fill="#B25B52"/>
<path d="M88.4281 65.48C80.3681 65.48 80.3481 52.95 88.4281 52.95C96.5081 52.95 96.4981 65.48 88.4281 65.48Z" fill="#B25B52"/>
<path d="M71.0219 54.8C62.9619 54.8 62.9519 42.27 71.0219 42.27C79.0919 42.27 79.1019 54.8 71.0219 54.8Z" fill="#B25B52"/>
<path d="M46.6195 53.8601C38.5595 53.8601 38.5395 41.3301 46.6195 41.3301C54.6995 41.3301 54.6895 53.8601 46.6195 53.8601Z" fill="#B25B52"/>
<path d="M24.3617 47.7299C16.3017 47.7299 16.2917 35.2 24.3617 35.2C32.4317 35.2 32.4417 47.7299 24.3617 47.7299Z" fill="#B25B52"/>
<path d="M-1.97813 44.9199C-10.0381 44.9199 -10.0481 32.3899 -1.97813 32.3899C6.09187 32.3899 6.10187 44.9199 -1.97813 44.9199Z" fill="#B25B52"/>
</g>
<defs>
<clipPath id="clip0_4721_63383">
<rect width="239" height="240" fill="white" transform="matrix(-1 0 0 1 239 0)"/>
</clipPath>
</defs>
</svg>
