<svg width="1280" height="18" viewBox="0 0 1280 18" fill="none" xmlns="http://www.w3.org/2000/svg">
<g clip-path="url(#clip0_4721_42067)">
<path d="M1262.1 6.1613C1260.78 4.52795 1261.3 1.75872 1263.02 0.573092C1264.97 -0.778358 1268.25 0.415562 1268.63 2.86973C1269.08 5.77162 1265.02 8.46623 1262.65 6.69193C1262.44 6.5344 1262.26 6.36029 1262.1 6.16959V6.1613Z" fill="#B4A39C"/>
<path d="M1242.9 6.27738C1241.84 4.43675 1242.81 1.76701 1244.7 0.871573C1246.87 -0.148233 1249.93 1.57632 1249.92 4.08023C1249.9 7.04016 1245.42 9.04661 1243.35 6.89092C1243.17 6.70022 1243.02 6.49295 1242.9 6.27738Z" fill="#B4A39C"/>
<path d="M1224.37 7.62054C1222.92 5.92915 1223.4 2.97751 1225.19 1.66752C1227.22 0.175118 1230.73 1.35246 1231.2 3.93928C1231.76 6.9987 1227.52 9.97521 1224.96 8.15946C1224.74 8.00193 1224.54 7.81952 1224.38 7.62054H1224.37Z" fill="#B4A39C"/>
<path d="M1207.2 8.76471C1205.45 7.96876 1204.76 5.45656 1205.7 3.76517C1206.77 1.83334 1209.97 1.46024 1211.27 3.33403C1212.81 5.54776 1210.53 9.46116 1207.86 8.97199C1207.62 8.93053 1207.4 8.85591 1207.2 8.76471Z" fill="#B4A39C"/>
<path d="M1185.78 6.50124C1185.6 4.31238 1187.66 2.25619 1189.82 2.27277C1192.28 2.28935 1194.38 5.28244 1193.28 7.60395C1191.97 10.3566 1186.93 10.2157 1185.94 7.2806C1185.85 7.02358 1185.8 6.76655 1185.78 6.50953L1185.78 6.50124Z" fill="#B4A39C"/>
<path d="M1170.14 10.9784C1167.86 10.481 1166.42 7.67857 1167.11 5.42339C1167.91 2.85315 1171.6 1.5929 1173.62 3.47498C1176 5.70529 1174.28 10.9453 1170.99 11.0613C1170.7 11.0696 1170.41 11.0448 1170.14 10.9867V10.9784Z" fill="#B4A39C"/>
<path d="M1149.52 10.4478C1147.88 8.98028 1147.96 6.00377 1149.55 4.47821C1151.36 2.73707 1154.97 3.42523 1155.77 5.90428C1156.71 8.84762 1152.93 12.3382 1150.18 10.8955C1149.93 10.7712 1149.72 10.6136 1149.52 10.4395V10.4478Z" fill="#B4A39C"/>
<path d="M1131.44 11.5174C1129.55 10.4395 1129.01 7.54592 1130.23 5.72187C1131.63 3.64909 1135.27 3.5496 1136.56 5.7882C1138.09 8.43307 1135.15 12.6284 1132.17 11.8158C1131.91 11.7412 1131.67 11.6417 1131.44 11.5174Z" fill="#B4A39C"/>
<path d="M1110.6 8.9637C1110.43 6.82459 1112.44 4.80156 1114.55 4.80985C1116.96 4.81814 1119.03 7.7449 1117.96 10.025C1116.69 12.7196 1111.74 12.6035 1110.77 9.72648C1110.69 9.47775 1110.63 9.22072 1110.61 8.9637H1110.6Z" fill="#B4A39C"/>
<path d="M1093.65 12.7113C1091.77 11.5505 1091.34 8.5906 1092.65 6.80801C1094.15 4.7684 1097.82 4.81814 1099.04 7.12307C1100.48 9.85914 1097.34 13.9798 1094.37 13.0429C1094.11 12.96 1093.87 12.8439 1093.65 12.7113Z" fill="#B4A39C"/>
<path d="M1073.22 10.1576C1073.06 8.15117 1074.95 6.26909 1076.92 6.28567C1079.18 6.30225 1081.11 9.04661 1080.09 11.1691C1078.9 13.6896 1074.28 13.5653 1073.37 10.8707C1073.29 10.6302 1073.24 10.3981 1073.22 10.1576Z" fill="#B4A39C"/>
<path d="M1054.22 9.64357C1054.66 7.55421 1057.15 6.21934 1059.16 6.84946C1061.45 7.57079 1062.59 10.9619 1060.91 12.8108C1058.93 15.0079 1054.26 13.4326 1054.15 10.4146C1054.15 10.1493 1054.17 9.8923 1054.22 9.64357Z" fill="#B4A39C"/>
<path d="M1038.37 14.6099C1036.45 14.0876 1035.35 11.6334 1036.04 9.75135C1036.82 7.60395 1040.03 6.69193 1041.66 8.38332C1043.6 10.3898 1041.9 14.7675 1039.09 14.7177C1038.84 14.7177 1038.6 14.6763 1038.37 14.6182V14.6099Z" fill="#B4A39C"/>
<path d="M1017.03 13.814C1015.91 11.9236 1016.85 9.12952 1018.81 8.15946C1021.04 7.04845 1024.26 8.78958 1024.29 11.3847C1024.33 14.4607 1019.72 16.6413 1017.52 14.4441C1017.33 14.2534 1017.17 14.0379 1017.03 13.8223V13.814Z" fill="#B4A39C"/>
<path d="M1000.53 16.0443C998.484 15.3976 997.389 12.7113 998.206 10.7048C999.137 8.42477 1002.63 7.57908 1004.32 9.46945C1006.32 11.7081 1004.32 16.3594 1001.29 16.1853C1001.03 16.1687 1000.76 16.1189 1000.53 16.0443Z" fill="#B4A39C"/>
<path d="M981.795 15.9946C979.867 15.3976 978.812 12.8771 979.572 10.9784C980.439 8.81446 983.716 7.99364 985.326 9.76793C987.23 11.8656 985.375 16.2599 982.515 16.1189C982.261 16.1106 982.024 16.0609 981.795 15.9946Z" fill="#B4A39C"/>
<path d="M962.108 16.2516C960.13 15.182 959.525 12.2055 960.751 10.3069C962.149 8.14288 965.9 7.96876 967.273 10.2488C968.899 12.9517 965.941 17.3294 962.86 16.5501C962.59 16.4837 962.337 16.3842 962.108 16.2516Z" fill="#B4A39C"/>
<path d="M941.357 13.5404C940.932 11.451 942.681 9.22901 944.765 8.98857C947.143 8.71496 949.513 11.3432 948.713 13.7145C947.773 16.5169 942.894 16.9895 941.594 14.27C941.48 14.0296 941.398 13.7891 941.349 13.5404H941.357Z" fill="#B4A39C"/>
<path d="M922.38 13.3663C922.135 11.2023 924.121 9.08806 926.262 9.03003C928.714 8.9637 930.896 11.8739 929.874 14.2203C928.665 16.9978 923.639 17.0227 922.56 14.1373C922.462 13.8803 922.404 13.6316 922.38 13.3746V13.3663Z" fill="#B4A39C"/>
<path d="M904.757 15.2484C903.572 13.7145 904.112 11.1691 905.722 10.1162C907.552 8.91395 910.552 10.0913 910.854 12.3548C911.206 15.0411 907.397 17.4372 905.256 15.7458C905.068 15.5966 904.905 15.4308 904.766 15.2484H904.757Z" fill="#B4A39C"/>
<path d="M884.81 13.1673C884.834 11.0448 887 9.26218 889.076 9.46946C891.438 9.7099 893.195 12.7776 891.928 14.9167C890.424 17.4455 885.586 16.8485 884.892 13.9301C884.834 13.673 884.802 13.416 884.81 13.1673Z" fill="#B4A39C"/>
<path d="M867.833 16.4506C866.166 15.2981 865.896 12.5786 867.171 10.995C868.626 9.18756 872.001 9.39483 873.014 11.5671C874.224 14.1373 871.167 17.7854 868.479 16.7905C868.242 16.6993 868.029 16.5915 867.833 16.4589V16.4506Z" fill="#B4A39C"/>
<path d="M850.034 17.6445C847.795 17.0392 846.487 14.1954 847.28 11.99C848.179 9.47775 851.914 8.3999 853.826 10.3566C856.09 12.6781 854.145 17.802 850.868 17.7606C850.582 17.7606 850.304 17.7191 850.042 17.6445H850.034Z" fill="#B4A39C"/>
<path d="M828.72 13.101C829.023 11.194 831.213 9.88401 833.044 10.3566C835.136 10.8955 836.313 13.8969 834.891 15.6463C833.207 17.7108 828.925 16.5169 828.696 13.7974C828.679 13.557 828.688 13.3248 828.72 13.101Z" fill="#B4A39C"/>
<path d="M809.562 13.1507C809.922 11.0696 812.341 9.66015 814.343 10.2074C816.632 10.8292 817.874 14.1373 816.288 16.0277C814.409 18.2663 809.742 16.89 809.53 13.9052C809.513 13.6399 809.53 13.3911 809.571 13.1424L809.562 13.1507Z" fill="#B4A39C"/>
<path d="M790.233 13.4824C790.511 11.1194 793.135 9.38654 795.423 9.86743C798.038 10.4229 799.632 14.0627 797.973 16.293C796.003 18.9296 790.667 17.6777 790.242 14.3363C790.201 14.0461 790.201 13.756 790.242 13.4741L790.233 13.4824Z" fill="#B4A39C"/>
<path d="M771.488 14.7343C771.177 12.3962 773.277 10.0747 775.599 9.96692C778.238 9.85085 780.666 12.9434 779.603 15.4971C778.353 18.5233 772.926 18.656 771.7 15.5551C771.594 15.2815 771.52 15.0079 771.488 14.7343Z" fill="#B4A39C"/>
<path d="M752.821 15.4805C752.192 13.217 753.941 10.6302 756.213 10.1991C758.803 9.7099 761.615 12.4128 760.928 15.0825C760.111 18.2414 754.782 19.1452 753.148 16.2682C753.001 16.0111 752.895 15.7541 752.821 15.4888V15.4805Z" fill="#B4A39C"/>
<path d="M734.176 13.6399C734.61 11.5091 737.135 10.1327 739.178 10.7629C741.515 11.4759 742.692 14.9167 741.009 16.8071C739.015 19.054 734.25 17.4952 734.119 14.4192C734.111 14.1456 734.127 13.8886 734.176 13.6399Z" fill="#B4A39C"/>
<path d="M716.041 16.2682C715.085 14.4773 716.082 11.9568 717.913 11.1525C720.005 10.2405 722.89 11.9817 722.808 14.3695C722.71 17.1968 718.379 18.9876 716.458 16.8651C716.287 16.6827 716.148 16.4754 716.041 16.2682Z" fill="#B4A39C"/>
<path d="M696.855 15.2152C696.389 13.2419 697.991 11.0613 699.969 10.7629C702.224 10.4229 704.562 12.8605 703.875 15.1489C703.066 17.8518 698.424 18.4487 697.108 15.9034C696.994 15.6795 696.912 15.4473 696.855 15.2152Z" fill="#B4A39C"/>
<path d="M678.646 16.4091C677.453 14.7509 678.107 12.0894 679.832 11.0282C681.809 9.81768 684.923 11.1691 685.168 13.5653C685.454 16.4091 681.352 18.8052 679.145 16.948C678.949 16.7822 678.785 16.5998 678.646 16.4091Z" fill="#B4A39C"/>
<path d="M659.088 13.217C659.522 11.194 661.941 9.92547 663.886 10.5473C666.101 11.252 667.179 14.5436 665.553 16.3179C663.624 18.4321 659.113 16.89 659.031 13.9632C659.031 13.7062 659.048 13.4575 659.097 13.217H659.088Z" fill="#B4A39C"/>
<path d="M643.063 17.4123C641.142 16.8651 640.055 14.3944 640.758 12.5123C641.567 10.3566 644.787 9.47775 646.413 11.1857C648.334 13.217 646.601 17.5947 643.774 17.5201C643.528 17.5201 643.291 17.4787 643.063 17.4123Z" fill="#B4A39C"/>
<path d="M622.335 16.4672C620.863 14.8918 621.199 11.9982 622.882 10.6551C624.795 9.12123 628.252 10.1162 628.815 12.6035C629.486 15.5551 625.497 18.6145 622.931 16.9646C622.711 16.8237 622.506 16.6496 622.335 16.4672Z" fill="#B4A39C"/>
<path d="M604.43 17.0144C602.575 15.9282 602.085 13.0595 603.31 11.2852C604.716 9.26218 608.304 9.21243 609.546 11.4344C611.017 14.0627 608.059 18.1585 605.141 17.3211C604.888 17.2465 604.651 17.147 604.43 17.0144Z" fill="#B4A39C"/>
<path d="M584.559 15.4308C583.48 13.7974 584.207 11.2603 585.907 10.3151C587.844 9.2373 590.787 10.6551 590.925 12.96C591.089 15.6961 587.068 17.8269 585.017 15.9614C584.837 15.7956 584.682 15.6132 584.559 15.4225V15.4308Z" fill="#B4A39C"/>
<path d="M566.596 16.492C564.855 15.3064 564.561 12.4791 565.877 10.8292C567.38 8.94711 570.886 9.13781 571.949 11.393C573.216 14.0627 570.061 17.8601 567.266 16.8403C567.021 16.749 566.792 16.633 566.588 16.492H566.596Z" fill="#B4A39C"/>
<path d="M545.831 14.5022C545.096 12.2801 546.722 9.6104 548.962 9.07148C551.52 8.45794 554.454 11.0116 553.89 13.7145C553.228 16.9066 547.948 18.0673 546.183 15.2732C546.028 15.0245 545.905 14.7758 545.823 14.5104L545.831 14.5022Z" fill="#B4A39C"/>
<path d="M528.87 15.8453C527.309 14.6265 527.211 11.9485 528.551 10.4893C530.08 8.82275 533.357 9.22072 534.215 11.4013C535.237 13.9881 532.041 17.346 529.483 16.2101C529.262 16.1106 529.058 15.9863 528.87 15.8453Z" fill="#B4A39C"/>
<path d="M509.959 16.0028C508.234 14.7343 508.046 11.849 509.444 10.2239C511.037 8.36674 514.593 8.69838 515.598 11.0282C516.783 13.7891 513.432 17.5201 510.629 16.3842C510.384 16.2847 510.155 16.1604 509.959 16.0028Z" fill="#B4A39C"/>
<path d="M491.882 16.0526C490.043 15.182 489.348 12.5206 490.361 10.7463C491.522 8.72326 494.897 8.36674 496.254 10.3566C497.856 12.7113 495.404 16.8237 492.576 16.2765C492.331 16.2267 492.094 16.1521 491.882 16.0526Z" fill="#B4A39C"/>
<path d="M473.41 15.837C471.604 15.1654 470.729 12.703 471.555 10.937C472.495 8.92224 475.666 8.31699 477.104 10.0913C478.812 12.1972 476.81 16.2847 474.097 15.9946C473.859 15.9697 473.631 15.9116 473.418 15.837H473.41Z" fill="#B4A39C"/>
<path d="M451.559 12.7776C451.338 10.481 453.471 8.29212 455.735 8.26724C458.318 8.24237 460.581 11.3515 459.454 13.814C458.13 16.7242 452.817 16.6661 451.73 13.5901C451.632 13.3165 451.575 13.0512 451.551 12.7776H451.559Z" fill="#B4A39C"/>
<path d="M434.478 14.8255C433.007 13.4575 433.137 10.7546 434.608 9.39483C436.292 7.8444 439.561 8.54085 440.239 10.8126C441.048 13.5072 437.542 16.6164 435.058 15.2484C434.837 15.1323 434.641 14.983 434.469 14.8255H434.478Z" fill="#B4A39C"/>
<path d="M414.037 12.6035C413.612 10.3732 415.508 8.01851 417.731 7.78636C420.264 7.52104 422.765 10.3649 421.882 12.8771C420.844 15.8536 415.63 16.293 414.29 13.3746C414.176 13.1175 414.086 12.8605 414.037 12.5952V12.6035Z" fill="#B4A39C"/>
<path d="M397.389 14.4441C395.787 13.3746 395.501 10.7877 396.694 9.27047C398.051 7.53763 401.262 7.68687 402.251 9.73477C403.428 12.1641 400.568 15.6629 398.01 14.7509C397.781 14.668 397.577 14.5685 397.389 14.4441Z" fill="#B4A39C"/>
<path d="M377.523 14.0213C375.995 12.3796 376.354 9.38654 378.095 7.99364C380.081 6.41003 383.669 7.43813 384.249 10.025C384.936 13.0844 380.8 16.2599 378.144 14.5436C377.915 14.3944 377.703 14.2203 377.523 14.0213Z" fill="#B4A39C"/>
<path d="M360.407 14.9665C358.192 14.2451 357.032 11.3184 357.931 9.15439C358.96 6.68364 362.753 5.79649 364.575 7.86098C366.725 10.3069 364.518 15.3396 361.232 15.124C360.946 15.1074 360.669 15.0494 360.407 14.9665Z" fill="#B4A39C"/>
<path d="M339.027 10.597C339.011 8.53256 341.095 6.74997 343.122 6.92408C345.435 7.12307 347.192 10.083 345.999 12.1889C344.577 14.6763 339.845 14.1788 339.126 11.3432C339.06 11.0945 339.036 10.8458 339.027 10.6053V10.597Z" fill="#B4A39C"/>
<path d="M322.166 13.9881C320.156 12.9434 319.486 9.95034 320.687 8.01851C322.06 5.81307 325.836 5.56434 327.266 7.83611C328.958 10.5307 326.057 14.9996 322.935 14.2783C322.665 14.212 322.403 14.1208 322.166 13.9964V13.9881Z" fill="#B4A39C"/>
<path d="M302.887 13.0346C301.228 11.7495 301.114 8.92224 302.519 7.36351C304.121 5.58921 307.595 5.99548 308.526 8.30041C309.621 11.0282 306.254 14.6099 303.541 13.4243C303.304 13.3165 303.083 13.1922 302.887 13.0429V13.0346Z" fill="#B4A39C"/>
<path d="M284.802 13.2253C282.865 12.3382 282.105 9.55237 283.151 7.67858C284.344 5.53947 287.883 5.14149 289.321 7.21427C291.029 9.66844 288.496 14.0047 285.529 13.4575C285.267 13.4077 285.022 13.3331 284.793 13.2253H284.802Z" fill="#B4A39C"/>
<path d="M263.259 8.78129C263.562 6.45149 266.185 4.78498 268.433 5.29903C270.999 5.8877 272.527 9.50262 270.852 11.6749C268.866 14.2451 263.627 12.9351 263.251 9.63528C263.218 9.34509 263.218 9.06319 263.251 8.78958L263.259 8.78129Z" fill="#B4A39C"/>
<path d="M245.549 10.5888C244.715 8.84762 245.762 6.47636 247.543 5.7882C249.578 5.00055 252.259 6.78313 252.079 9.0549C251.867 11.7495 247.666 13.2751 245.925 11.1691C245.77 10.9867 245.647 10.7877 245.549 10.5805V10.5888Z" fill="#B4A39C"/>
<path d="M228.999 12.8522C226.76 12.3216 225.387 9.52749 226.106 7.32206C226.932 4.80156 230.601 3.62422 232.554 5.51459C234.867 7.75319 233.078 12.8854 229.825 12.9351C229.539 12.9351 229.261 12.9103 228.999 12.8439V12.8522Z" fill="#B4A39C"/>
<path d="M210.187 12.5289C207.955 11.9982 206.582 9.22072 207.302 7.02358C208.119 4.51137 211.772 3.34232 213.717 5.21611C216.022 7.44642 214.248 12.562 211.004 12.6118C210.718 12.6118 210.448 12.5869 210.178 12.5206L210.187 12.5289Z" fill="#B4A39C"/>
<path d="M190.621 11.7329C188.668 10.8043 187.932 7.96876 189.019 6.07839C190.261 3.9227 193.857 3.56618 195.296 5.68871C196.996 8.20921 194.364 12.5786 191.365 11.9817C191.103 11.9319 190.85 11.849 190.621 11.7329Z" fill="#B4A39C"/>
<path d="M172.582 11.5008C170.58 11.0033 169.362 8.47452 170.04 6.50124C170.809 4.24605 174.119 3.22625 175.851 4.94251C177.911 6.98212 176.252 11.5754 173.326 11.592C173.073 11.592 172.819 11.5588 172.582 11.5008Z" fill="#B4A39C"/>
<path d="M152.893 10.7131C151.144 9.74306 150.629 7.08162 151.733 5.40681C153 3.49156 156.342 3.3672 157.544 5.40681C158.966 7.82782 156.301 11.6998 153.563 10.9784C153.326 10.9121 153.098 10.8209 152.893 10.7131Z" fill="#B4A39C"/>
<path d="M132.077 9.06319C131.056 7.01529 132.257 4.2046 134.349 3.35891C136.736 2.39714 139.931 4.45333 139.768 7.13965C139.572 10.3234 134.635 12.2055 132.535 9.75135C132.347 9.53578 132.2 9.30363 132.077 9.06319Z" fill="#B4A39C"/>
<path d="M113.052 8.08484C112.374 5.93744 113.976 3.39207 116.141 2.9029C118.609 2.34739 121.396 4.85131 120.824 7.42984C120.138 10.4893 115.054 11.5339 113.395 8.82275C113.248 8.58231 113.142 8.33357 113.06 8.08484H113.052Z" fill="#B4A39C"/>
<path d="M94.1094 5.55605C94.608 3.3672 97.2477 2.01575 99.34 2.7122C101.735 3.50815 102.862 7.08161 101.073 8.99686C98.9558 11.2603 94.0849 9.53578 94.0195 6.36029C94.0195 6.07839 94.044 5.81307 94.1013 5.55605H94.1094Z" fill="#B4A39C"/>
<path d="M77.4462 9.428C75.6728 8.36674 75.2314 5.61409 76.4328 3.9227C77.7977 1.99087 81.2465 1.98258 82.4152 4.12169C83.8046 6.65877 80.9196 10.5639 78.1327 9.72648C77.8876 9.65186 77.6587 9.55237 77.4544 9.428H77.4462Z" fill="#B4A39C"/>
<path d="M56.8579 6.80801C56.3267 4.80985 57.904 2.54638 59.9064 2.19815C62.1947 1.79189 64.6383 4.21289 64.0009 6.55098C63.2408 9.32851 58.5415 10.0581 57.1358 7.49617C57.0132 7.27231 56.9233 7.04016 56.8579 6.80801Z" fill="#B4A39C"/>
<path d="M40.8959 9.37825C38.7792 8.90566 37.447 6.30225 38.1008 4.21289C38.8445 1.82505 42.2853 0.664295 44.1486 2.42201C46.3553 4.50308 44.7452 9.36167 41.6805 9.45287C41.4108 9.45287 41.1493 9.43629 40.9041 9.37825H40.8959Z" fill="#B4A39C"/>
<path d="M18.6672 4.8596C18.8306 2.57954 21.2824 0.788662 23.5054 1.15347C26.0389 1.57632 27.7388 5.00055 26.2351 7.21427C24.4534 9.83426 19.2719 8.87249 18.7162 5.68042C18.6672 5.39852 18.6508 5.12491 18.6753 4.85131L18.6672 4.8596Z" fill="#B4A39C"/>
<path d="M2.27071 8.73984C0.162153 7.72832 -0.630599 4.66061 0.54627 2.621C1.88659 0.291196 5.7768 -0.0984859 7.32961 2.19815C9.16847 4.91764 6.32437 9.64357 3.07981 8.99686C2.79376 8.93882 2.52406 8.84762 2.27888 8.73155L2.27071 8.73984Z" fill="#B4A39C"/>
</g>
<defs>
<clipPath id="clip0_4721_42067">
<rect width="1280" height="18" fill="white" transform="matrix(1 0 0 -1 0 18.001)"/>
</clipPath>
</defs>
</svg>
