<svg width="1380" height="18" viewBox="0 0 1380 18" fill="none" xmlns="http://www.w3.org/2000/svg">
<g clip-path="url(#clip0_4721_36186)">
<path d="M1360.7 11.8397C1359.28 13.4731 1359.84 16.2423 1361.69 17.4279C1363.8 18.7794 1367.34 17.5855 1367.74 15.1313C1368.23 12.2294 1363.85 9.53479 1361.29 11.3091C1361.07 11.4666 1360.87 11.6407 1360.7 11.8314V11.8397Z" fill="#B4A39C"/>
<path d="M1340 11.7236C1338.86 13.5642 1339.9 16.234 1341.95 17.1294C1344.28 18.1492 1347.58 16.4247 1347.57 13.9208C1347.55 10.9608 1342.72 8.95439 1340.49 11.1101C1340.3 11.3008 1340.13 11.5081 1340 11.7236Z" fill="#B4A39C"/>
<path d="M1320.02 10.3805C1318.46 12.0718 1318.97 15.0235 1320.9 16.3335C1323.1 17.8259 1326.88 16.6485 1327.39 14.0617C1327.99 11.0023 1323.42 8.02579 1320.67 9.84154C1320.43 9.99907 1320.21 10.1815 1320.03 10.3805H1320.02Z" fill="#B4A39C"/>
<path d="M1301.51 9.23631C1299.62 10.0323 1298.88 12.5445 1299.9 14.2358C1301.05 16.1677 1304.5 16.5408 1305.9 14.667C1307.56 12.4533 1305.1 8.53985 1302.22 9.02903C1301.97 9.07048 1301.73 9.1451 1301.51 9.23631Z" fill="#B4A39C"/>
<path d="M1278.42 11.4998C1278.23 13.6886 1280.45 15.7448 1282.78 15.7282C1285.43 15.7117 1287.69 12.7186 1286.5 10.3971C1285.09 7.64442 1279.66 7.78537 1278.59 10.7204C1278.49 10.9774 1278.44 11.2345 1278.42 11.4915L1278.42 11.4998Z" fill="#B4A39C"/>
<path d="M1261.56 7.02258C1259.1 7.52004 1257.54 10.3224 1258.29 12.5776C1259.15 15.1479 1263.13 16.4081 1265.3 14.526C1267.88 12.2957 1266.02 7.05574 1262.47 6.93966C1262.16 6.93137 1261.85 6.95625 1261.56 7.01429V7.02258Z" fill="#B4A39C"/>
<path d="M1239.33 7.55321C1237.56 9.02074 1237.65 11.9972 1239.36 13.5228C1241.31 15.2639 1245.2 14.5758 1246.06 12.0967C1247.08 9.1534 1243 5.66284 1240.03 7.10549C1239.77 7.22986 1239.54 7.38739 1239.33 7.56151V7.55321Z" fill="#B4A39C"/>
<path d="M1219.84 6.48366C1217.79 7.5615 1217.21 10.4551 1218.53 12.2791C1220.04 14.3519 1223.96 14.4514 1225.35 12.2128C1227 9.56795 1223.83 5.37265 1220.62 6.18518C1220.34 6.2598 1220.08 6.35929 1219.84 6.48366Z" fill="#B4A39C"/>
<path d="M1197.37 9.03732C1197.18 11.1764 1199.35 13.1995 1201.63 13.1912C1204.23 13.1829 1206.46 10.2561 1205.3 7.97606C1203.93 5.28145 1198.6 5.39753 1197.55 8.27454C1197.46 8.52327 1197.4 8.7803 1197.38 9.03732H1197.37Z" fill="#B4A39C"/>
<path d="M1179.09 5.28974C1177.06 6.4505 1176.6 9.41042 1178.01 11.193C1179.62 13.2326 1183.59 13.1829 1184.9 10.8779C1186.45 8.14188 1183.07 4.0212 1179.86 4.9581C1179.58 5.04101 1179.33 5.15708 1179.09 5.28974Z" fill="#B4A39C"/>
<path d="M1157.07 7.8434C1156.89 9.84985 1158.93 11.7319 1161.06 11.7154C1163.49 11.6988 1165.57 8.95441 1164.48 6.83189C1163.19 4.31139 1158.2 4.43576 1157.23 7.13037C1157.14 7.37081 1157.08 7.60296 1157.07 7.8434Z" fill="#B4A39C"/>
<path d="M1136.58 8.35744C1137.06 10.4468 1139.75 11.7817 1141.91 11.1515C1144.38 10.4302 1145.6 7.03916 1143.8 5.19024C1141.67 2.99309 1136.63 4.5684 1136.51 7.58637C1136.5 7.85168 1136.53 8.10871 1136.58 8.35744Z" fill="#B4A39C"/>
<path d="M1119.5 3.39107C1117.43 3.91341 1116.24 6.36758 1116.98 8.24966C1117.82 10.3971 1121.28 11.3091 1123.04 9.6177C1125.13 7.61125 1123.29 3.23354 1120.26 3.28329C1120 3.28329 1119.74 3.32474 1119.5 3.38278V3.39107Z" fill="#B4A39C"/>
<path d="M1096.49 4.18701C1095.27 6.07738 1096.3 8.87148 1098.4 9.84154C1100.81 10.9526 1104.28 9.21142 1104.31 6.6163C1104.36 3.5403 1099.39 1.35974 1097.02 3.55688C1096.81 3.74758 1096.64 3.96315 1096.49 4.17872V4.18701Z" fill="#B4A39C"/>
<path d="M1078.69 1.95671C1076.49 2.60342 1075.31 5.28974 1076.19 7.29618C1077.19 9.57624 1080.96 10.4219 1082.78 8.53156C1084.94 6.29296 1082.78 1.64165 1079.51 1.81576C1079.23 1.83234 1078.95 1.88209 1078.69 1.95671Z" fill="#B4A39C"/>
<path d="M1058.5 2.00646C1056.42 2.60342 1055.28 5.12392 1056.1 7.02258C1057.03 9.18656 1060.57 10.0074 1062.3 8.23309C1064.36 6.13544 1062.36 1.74115 1059.27 1.8821C1059 1.89039 1058.74 1.94013 1058.5 2.00646Z" fill="#B4A39C"/>
<path d="M1037.27 1.74942C1035.14 2.81897 1034.49 5.79548 1035.81 7.69414C1037.32 9.85812 1041.36 10.0322 1042.84 7.75218C1044.59 5.04928 1041.4 0.671571 1038.08 1.45094C1037.79 1.51726 1037.52 1.61676 1037.27 1.74942Z" fill="#B4A39C"/>
<path d="M1014.9 4.46063C1014.44 6.54999 1016.33 8.772 1018.57 9.01245C1021.14 9.28605 1023.69 6.65777 1022.83 4.28651C1021.82 1.48412 1016.56 1.01152 1015.15 3.73101C1015.03 3.97145 1014.94 4.21189 1014.89 4.46063H1014.9Z" fill="#B4A39C"/>
<path d="M994.44 4.63472C994.176 6.7987 996.317 8.91294 998.625 8.97097C1001.27 9.0373 1003.62 6.12712 1002.52 3.78074C1001.22 1.00322 995.797 0.978343 994.634 3.86365C994.528 4.12067 994.467 4.36941 994.44 4.62643V4.63472Z" fill="#B4A39C"/>
<path d="M975.442 2.75265C974.165 4.28651 974.746 6.83188 976.482 7.88485C978.456 9.08706 981.689 7.90972 982.015 5.64625C982.394 2.95993 978.288 0.563799 975.98 2.25519C975.777 2.40443 975.601 2.57025 975.451 2.75265H975.442Z" fill="#B4A39C"/>
<path d="M953.935 4.83372C953.961 6.95624 956.296 8.73883 958.534 8.53155C961.081 8.29111 962.975 5.2234 961.609 3.08429C959.988 0.555504 954.772 1.15246 954.023 4.07093C953.961 4.32796 953.926 4.58498 953.935 4.83372Z" fill="#B4A39C"/>
<path d="M935.635 1.55043C933.837 2.7029 933.546 5.42238 934.921 7.00598C936.489 8.81345 940.128 8.60617 941.221 6.4339C942.525 3.86365 939.23 0.215564 936.331 1.2105C936.075 1.3017 935.846 1.40948 935.635 1.54214V1.55043Z" fill="#B4A39C"/>
<path d="M916.443 0.356529C914.029 0.961781 912.619 3.80563 913.474 6.01107C914.443 8.52327 918.47 9.60112 920.532 7.64442C922.972 5.3229 920.875 0.198998 917.342 0.240454C917.034 0.240454 916.734 0.281909 916.452 0.356529H916.443Z" fill="#B4A39C"/>
<path d="M893.463 4.90004C893.789 6.80699 896.15 8.11699 898.124 7.64439C900.38 7.10547 901.649 4.10409 900.115 2.35467C898.3 0.29018 893.683 1.4841 893.437 4.20358C893.419 4.44403 893.428 4.67618 893.463 4.90004Z" fill="#B4A39C"/>
<path d="M872.81 4.85029C873.197 6.93136 875.805 8.34084 877.964 7.79363C880.431 7.1718 881.771 3.86364 880.061 1.97327C878.035 -0.265328 873.003 1.111 872.774 4.0958C872.757 4.36111 872.774 4.60984 872.818 4.85858L872.81 4.85029Z" fill="#B4A39C"/>
<path d="M851.971 4.51866C852.271 6.88163 855.099 8.61447 857.567 8.13359C860.386 7.57809 862.104 3.93829 860.316 1.70798C858.192 -0.928594 852.438 0.323363 851.98 3.66468C851.936 3.95487 851.936 4.24506 851.98 4.52696L851.971 4.51866Z" fill="#B4A39C"/>
<path d="M831.76 3.2667C831.425 5.60479 833.689 7.9263 836.192 8.03409C839.038 8.15016 841.655 5.05758 840.509 2.50392C839.161 -0.52234 833.31 -0.654998 831.989 2.44588C831.874 2.71948 831.795 2.99309 831.76 3.2667Z" fill="#B4A39C"/>
<path d="M811.634 2.52049C810.955 4.78396 812.841 7.37079 815.29 7.80193C818.084 8.2911 821.115 5.5882 820.375 2.91846C819.493 -0.240449 813.748 -1.14418 811.986 1.73284C811.828 1.98986 811.713 2.24688 811.634 2.5122V2.52049Z" fill="#B4A39C"/>
<path d="M791.537 4.36112C792.003 6.49193 794.726 7.86826 796.929 7.23813C799.449 6.5251 800.718 3.08429 798.903 1.19392C796.753 -1.05298 791.616 0.505753 791.475 3.58176C791.466 3.85536 791.484 4.11239 791.537 4.36112Z" fill="#B4A39C"/>
<path d="M771.984 1.73285C770.953 3.52373 772.028 6.04423 774.002 6.84847C776.258 7.76049 779.368 6.01936 779.28 3.63152C779.174 0.804247 774.504 -0.986632 772.434 1.13589C772.249 1.3183 772.099 1.52557 771.984 1.73285Z" fill="#B4A39C"/>
<path d="M751.295 2.7858C750.792 4.75908 752.519 6.93965 754.652 7.23813C757.084 7.57806 759.604 5.14047 758.864 2.85213C757.991 0.149226 752.986 -0.447734 751.568 2.09764C751.444 2.3215 751.356 2.55365 751.295 2.7858Z" fill="#B4A39C"/>
<path d="M731.665 1.59191C730.378 3.25013 731.083 5.91157 732.942 6.97284C735.075 8.18334 738.432 6.83189 738.696 4.43576C739.004 1.5919 734.581 -0.804226 732.202 1.05298C731.991 1.21881 731.814 1.40121 731.665 1.59191Z" fill="#B4A39C"/>
<path d="M710.579 4.78396C711.046 6.80699 713.654 8.07553 715.751 7.4537C718.139 6.74895 719.302 3.45738 717.549 1.68309C715.469 -0.431147 710.606 1.111 710.518 4.03776C710.518 4.29479 710.535 4.54352 710.588 4.78396H710.579Z" fill="#B4A39C"/>
<path d="M693.3 0.588676C691.23 1.13589 690.058 3.60664 690.816 5.48872C691.688 7.64441 695.16 8.52327 696.913 6.8153C698.984 4.78398 697.116 0.406272 694.067 0.480892C693.803 0.480892 693.547 0.522347 693.3 0.588676Z" fill="#B4A39C"/>
<path d="M670.954 1.53384C669.368 3.10915 669.73 6.00275 671.545 7.34591C673.606 8.87976 677.334 7.88483 677.942 5.3975C678.664 2.44586 674.364 -0.613557 671.597 1.03637C671.36 1.17732 671.139 1.35144 670.954 1.53384Z" fill="#B4A39C"/>
<path d="M651.65 0.986629C649.65 2.07276 649.121 4.94149 650.443 6.71579C651.959 8.73882 655.827 8.78856 657.166 6.56655C658.752 3.93826 655.562 -0.157544 652.417 0.679858C652.144 0.754478 651.888 0.853971 651.65 0.986629Z" fill="#B4A39C"/>
<path d="M630.229 2.57023C629.066 4.20358 629.851 6.74066 631.683 7.68585C633.772 8.76369 636.944 7.34591 637.093 5.04098C637.27 2.30492 632.935 0.174102 630.723 2.0396C630.529 2.20542 630.362 2.38783 630.229 2.57852V2.57023Z" fill="#B4A39C"/>
<path d="M610.862 1.509C608.986 2.69462 608.668 5.52189 610.087 7.17182C611.708 9.05391 615.488 8.86321 616.634 6.60803C617.999 3.93829 614.598 0.140962 611.585 1.16077C611.321 1.25197 611.074 1.36805 610.854 1.509H610.862Z" fill="#B4A39C"/>
<path d="M588.472 3.49885C587.679 5.72086 589.433 8.3906 591.847 8.92952C594.605 9.54307 597.768 6.9894 597.16 4.2865C596.446 1.09442 590.754 -0.0663316 588.851 2.72777C588.684 2.97651 588.552 3.22524 588.464 3.49055L588.472 3.49885Z" fill="#B4A39C"/>
<path d="M570.191 2.1557C568.508 3.3745 568.402 6.05253 569.847 7.51176C571.495 9.17827 575.028 8.7803 575.953 6.59974C577.055 4.01291 573.609 0.655012 570.852 1.79089C570.614 1.89039 570.393 2.01475 570.191 2.1557Z" fill="#B4A39C"/>
<path d="M549.8 1.99816C547.941 3.2667 547.738 6.15201 549.245 7.77707C550.963 9.63428 554.796 9.30263 555.88 6.97283C557.157 4.21189 553.545 0.48089 550.522 1.61677C550.258 1.71627 550.011 1.84063 549.8 1.99816Z" fill="#B4A39C"/>
<path d="M530.31 1.9484C528.328 2.81897 527.579 5.48041 528.671 7.25471C529.923 9.27774 533.562 9.63426 535.024 7.64439C536.751 5.28972 534.108 1.17733 531.059 1.72454C530.795 1.77429 530.539 1.84891 530.31 1.9484Z" fill="#B4A39C"/>
<path d="M510.398 2.16399C508.45 2.83557 507.508 5.29803 508.398 7.06404C509.411 9.07878 512.83 9.68403 514.38 7.90973C516.222 5.80379 514.063 1.71627 511.138 2.00646C510.882 2.03133 510.636 2.08937 510.407 2.16399H510.398Z" fill="#B4A39C"/>
<path d="M486.835 5.22341C486.597 7.52005 488.897 9.7089 491.338 9.73377C494.122 9.75865 496.563 6.64948 495.347 4.18702C493.92 1.27684 488.192 1.33488 487.02 4.41088C486.915 4.68449 486.853 4.9498 486.827 5.22341H486.835Z" fill="#B4A39C"/>
<path d="M468.42 3.1755C466.834 4.54354 466.975 7.24644 468.561 8.60618C470.376 10.1566 473.901 9.46017 474.632 7.1884C475.504 4.49379 471.724 1.38462 469.046 2.75266C468.808 2.86873 468.596 3.01797 468.411 3.1755H468.42Z" fill="#B4A39C"/>
<path d="M446.383 5.3975C445.925 7.62781 447.969 9.98248 450.366 10.2146C453.097 10.48 455.793 7.6361 454.842 5.12389C453.723 2.14739 448.101 1.70796 446.656 4.62643C446.533 4.88345 446.436 5.14048 446.383 5.40579V5.3975Z" fill="#B4A39C"/>
<path d="M428.436 3.55689C426.709 4.62644 426.4 7.21327 427.687 8.73054C429.149 10.4634 432.612 10.3141 433.678 8.26624C434.947 5.83695 431.863 2.3381 429.105 3.25012C428.859 3.33303 428.638 3.43252 428.436 3.55689Z" fill="#B4A39C"/>
<path d="M407.015 3.97973C405.367 5.62137 405.755 8.61446 407.631 10.0074C409.772 11.591 413.641 10.5629 414.266 7.97605C415.006 4.91663 410.548 1.74113 407.684 3.45739C407.437 3.60663 407.208 3.78074 407.015 3.97973Z" fill="#B4A39C"/>
<path d="M388.564 3.03454C386.176 3.75587 384.925 6.68263 385.894 8.84661C387.004 11.3174 391.093 12.2045 393.058 10.14C395.375 7.69415 392.996 2.66144 389.454 2.87701C389.145 2.89359 388.846 2.95163 388.564 3.03454Z" fill="#B4A39C"/>
<path d="M365.514 7.40396C365.496 9.46845 367.743 11.251 369.928 11.0769C372.422 10.8779 374.316 7.91801 373.03 5.81207C371.497 3.32473 366.395 3.8222 365.62 6.65776C365.549 6.90649 365.523 7.15523 365.514 7.39567V7.40396Z" fill="#B4A39C"/>
<path d="M347.336 4.01291C345.169 5.05759 344.446 8.05068 345.742 9.98251C347.222 12.1879 351.293 12.4367 352.835 10.1649C354.659 7.47031 351.531 3.0014 348.165 3.72272C347.874 3.78905 347.592 3.88025 347.336 4.00462V4.01291Z" fill="#B4A39C"/>
<path d="M326.552 4.96639C324.764 6.25151 324.64 9.07878 326.156 10.6375C327.883 12.4118 331.628 12.0055 332.632 9.70061C333.813 6.97284 330.183 3.39108 327.257 4.57671C327.002 4.68449 326.764 4.80886 326.552 4.9581V4.96639Z" fill="#B4A39C"/>
<path d="M307.053 4.77568C304.965 5.66283 304.146 8.44864 305.273 10.3224C306.56 12.4615 310.375 12.8595 311.926 10.7867C313.767 8.33257 311.036 3.99632 307.837 4.54353C307.556 4.59328 307.291 4.6679 307.044 4.77568H307.053Z" fill="#B4A39C"/>
<path d="M283.826 9.21971C284.152 11.5495 286.981 13.216 289.404 12.702C292.17 12.1133 293.818 8.49838 292.012 6.32611C289.871 3.75587 284.223 5.06586 283.817 8.36573C283.782 8.65592 283.782 8.93781 283.817 9.21142L283.826 9.21971Z" fill="#B4A39C"/>
<path d="M264.732 7.41226C263.833 9.1534 264.961 11.5247 266.882 12.2128C269.076 13.0005 271.966 11.2179 271.772 8.94612C271.543 6.25151 267.014 4.72595 265.137 6.83189C264.97 7.01429 264.838 7.21328 264.732 7.42056V7.41226Z" fill="#B4A39C"/>
<path d="M246.889 5.14877C244.475 5.6794 242.994 8.4735 243.77 10.6789C244.66 13.1994 248.616 14.3768 250.722 12.4864C253.215 10.2478 251.286 5.1156 247.779 5.06586C247.47 5.06586 247.171 5.09073 246.889 5.15706V5.14877Z" fill="#B4A39C"/>
<path d="M226.607 5.47213C224.201 6.00276 222.721 8.78029 223.496 10.9774C224.377 13.4896 228.316 14.6587 230.413 12.7849C232.898 10.5546 230.986 5.43897 227.488 5.38922C227.179 5.38922 226.889 5.41409 226.598 5.48042L226.607 5.47213Z" fill="#B4A39C"/>
<path d="M205.512 6.26809C203.406 7.19669 202.613 10.0323 203.785 11.9226C205.124 14.0783 209.001 14.4348 210.552 12.3123C212.385 9.79181 209.548 5.42239 206.314 6.01935C206.032 6.0691 205.759 6.15201 205.512 6.26809Z" fill="#B4A39C"/>
<path d="M186.065 6.50023C183.906 6.9977 182.593 9.52648 183.325 11.4998C184.153 13.755 187.722 14.7748 189.59 13.0585C191.81 11.0189 190.021 6.42561 186.867 6.40903C186.594 6.40903 186.321 6.44219 186.065 6.50023Z" fill="#B4A39C"/>
<path d="M164.84 7.2879C162.954 8.25796 162.399 10.9194 163.589 12.5942C164.954 14.5095 168.558 14.6338 169.853 12.5942C171.387 10.1732 168.514 6.30126 165.562 7.02259C165.307 7.08891 165.06 7.18012 164.84 7.2879Z" fill="#B4A39C"/>
<path d="M142.397 8.93781C141.296 10.9857 142.591 13.7964 144.847 14.6421C147.42 15.6039 150.865 13.5477 150.689 10.8613C150.477 7.67756 145.155 5.79548 142.891 8.24965C142.688 8.46522 142.529 8.69737 142.397 8.93781Z" fill="#B4A39C"/>
<path d="M121.885 9.91616C121.153 12.0636 122.88 14.6089 125.215 15.0981C127.876 15.6536 130.881 13.1497 130.264 10.5712C129.524 7.51174 124.043 6.46706 122.255 9.17825C122.096 9.41869 121.982 9.66743 121.893 9.91616H121.885Z" fill="#B4A39C"/>
<path d="M101.46 12.445C101.998 14.6338 104.844 15.9853 107.099 15.2888C109.681 14.4929 110.897 10.9194 108.967 9.00414C106.685 6.74067 101.434 8.46522 101.363 11.6407C101.363 11.9226 101.39 12.1879 101.451 12.445H101.46Z" fill="#B4A39C"/>
<path d="M83.4942 8.57302C81.5821 9.63428 81.1063 12.3869 82.4016 14.0783C83.873 16.0101 87.5914 16.0184 88.8514 13.8793C90.3493 11.3422 87.2389 7.43713 84.2343 8.27454C83.97 8.34916 83.7232 8.44865 83.503 8.57302H83.4942Z" fill="#B4A39C"/>
<path d="M61.2997 11.193C60.7269 13.1911 62.4275 15.4546 64.5862 15.8028C67.0534 16.2091 69.6879 13.7881 69.0006 11.45C68.1812 8.67249 63.1148 7.94287 61.5992 10.5048C61.4671 10.7287 61.3701 10.9608 61.2997 11.193Z" fill="#B4A39C"/>
<path d="M44.0922 8.62275C41.8101 9.09534 40.3738 11.6987 41.0787 13.7881C41.8806 16.1759 45.5901 17.3367 47.599 15.579C49.978 13.4979 48.2422 8.63933 44.938 8.54813C44.6473 8.54813 44.3653 8.56471 44.101 8.62275H44.0922Z" fill="#B4A39C"/>
<path d="M20.1244 13.1414C20.3007 15.4215 22.944 17.2124 25.3407 16.8475C28.0721 16.4247 29.9048 13.0005 28.2836 10.7867C26.3627 8.16676 20.7765 9.12852 20.1773 12.3206C20.1244 12.6025 20.1068 12.8761 20.1332 13.1497L20.1244 13.1414Z" fill="#B4A39C"/>
<path d="M2.45006 9.26116C0.176775 10.2727 -0.677911 13.3404 0.590901 15.38C2.03594 17.7098 6.23006 18.0995 7.90419 15.8028C9.88671 13.0834 6.82041 8.35742 3.32237 9.00413C3.01398 9.06217 2.72321 9.15337 2.45887 9.26945L2.45006 9.26116Z" fill="#B4A39C"/>
</g>
<defs>
<clipPath id="clip0_4721_36186">
<rect width="1380" height="18" fill="white"/>
</clipPath>
</defs>
</svg>
