<svg width="1440" height="21" viewBox="0 0 1440 21" fill="none" xmlns="http://www.w3.org/2000/svg">
<g clip-path="url(#clip0_4318_42248)">
<path d="M1457.51 -193.365H-18.8027V10.6199H1457.51V-193.365Z" fill="#F1E1D2"/>
<path d="M1459.66 -30.4192C1455.27 -70.2021 1459.71 -122.627 1456.92 -166.214C1456.73 -171.319 1459.32 -164.888 1458.73 -176.424C1458.63 -177.75 1458.54 -179.098 1458.43 -180.458C1458.34 -181.887 1458.25 -183.351 1458.16 -184.826C1458.01 -187.649 1457.86 -190.565 1457.7 -193.55C1455.02 -193.446 1452.28 -193.342 1449.49 -193.239C1446.79 -193.17 1444.04 -193.089 1441.25 -193.02C1435.62 -192.893 1429.83 -192.824 1423.91 -192.801C1412.06 -192.743 1399.7 -192.881 1387.23 -193.135C1362.31 -193.654 1336.97 -194.691 1314.51 -195.843L1317.62 -196.523C1307.83 -197.019 1295.9 -194.76 1285.53 -195.083C1285.44 -195.532 1288.84 -195.728 1286.44 -196.339C1283.83 -194.979 1267.71 -195.716 1263.32 -194.691C1259.22 -195.221 1259.63 -196.304 1254.34 -196.892L1248.41 -195.348C1231.93 -191.66 1208.36 -195.613 1185.86 -193.7C1186.94 -194.057 1189.16 -194.334 1187.38 -194.691C1151.26 -192.455 1106.07 -192.87 1065.69 -192.052C1067.3 -192.593 1068.8 -193.596 1066.43 -194.218C1064.44 -192.582 1051.97 -192.167 1041.15 -191.856C1036.27 -193.538 1022.58 -190.323 1009.89 -191.245L1010.97 -191.614C1001.59 -189.862 997.045 -192.628 989.434 -190.519L983.49 -191.844C979.363 -189.482 969.912 -193.066 962.163 -191.867L962.416 -191.383C955.104 -190.807 951.299 -191.994 944.515 -191.591L943.871 -191.867C927.994 -191.245 918.762 -192.559 919.141 -190.715C913.577 -192.19 934.524 -191.383 925.787 -193.538C873.544 -191.637 819.68 -192.006 767.092 -191.971C761.114 -192.709 757.308 -192.939 755.975 -193.631C750.732 -193.262 736.188 -193.296 731.417 -192.351C733.176 -192.386 728.025 -193.296 725.243 -193.389C715.666 -194.08 714.792 -191.36 704.284 -192.19C708.469 -192.686 709.883 -193.273 708.48 -193.965C699.513 -192.524 687.533 -192.755 676.944 -192.282C678.588 -192.593 681.152 -192.778 680.749 -193.354C669.172 -191.717 659.618 -193.7 649.466 -192.662L653.271 -193.734C636.922 -195.025 648.454 -191.51 634.313 -192.271C637.704 -192.605 636.509 -193.02 637.129 -193.458C623.954 -191.522 602.615 -192.155 589.451 -191.51C590.233 -191.66 590.037 -191.948 590.037 -191.948C575.701 -191.706 560.731 -192.305 544.969 -191.464C539.232 -191.936 546.843 -194.068 531.678 -193.677C532.23 -191.533 505.936 -192.801 514.881 -190.381C501.924 -190.738 481.424 -191.533 472.79 -190.807C478.619 -191.625 466.478 -193.423 477.24 -193.607L469.1 -194.898C470.307 -195.774 477.481 -194.599 474.894 -195.705C469.479 -195.624 453.763 -194.771 448.945 -195.117C438.954 -193.803 429.768 -191.36 413.58 -191.084C421.191 -191.913 409.246 -193.435 414.431 -193.803L391.839 -189.701C386.459 -189.597 390.667 -191.395 382.883 -190.83C383.297 -190.265 379.905 -189.92 377.525 -189.459C375.502 -189.701 355.141 -188.928 352.795 -191.026C350.427 -191.856 361.579 -191.475 355.612 -192.213C345.667 -192.19 345.23 -191.475 335.274 -191.441L335.09 -191.717C328.513 -192.029 315.729 -190.819 322.868 -189.655C327.444 -189.585 321.132 -190.922 327.893 -190.311C323.271 -189.09 311.705 -188.744 301.76 -188.721C305.151 -189.067 304.737 -189.62 306.106 -190.219C292.734 -188.56 278.57 -188.041 263.647 -187.35C263.417 -186.347 269.211 -189.171 271.407 -188.64C252.265 -190.023 231.892 -186.67 215.968 -188.698C218.578 -188.871 217.383 -187.28 217.199 -187.557C207.978 -187.684 208.392 -189.136 202.39 -188.594C201.804 -189.447 194.848 -188.329 188.663 -188.064C185.478 -187.442 187.053 -188.479 192.434 -188.571C183.823 -187.845 149.354 -186.543 129.453 -187.776C129.832 -187.211 117.22 -185.702 112.656 -185.771L114.449 -187.085C110.276 -187.868 99.1122 -186.969 98.3533 -188.099C88.5693 -186.497 135.995 -189.459 122.762 -188.225C119.347 -189.332 104.355 -186.128 107.206 -187.926C98.0084 -187.88 89.0982 -186.393 80.3259 -187.626C82.8783 -187.419 87.7875 -189.447 80.3604 -189.355C67.2998 -189.124 76.6469 -188.721 66.0581 -188.283L59.4128 -187.741C58.9644 -186.462 47.7317 -187.914 52.595 -186.474C50.9854 -187.534 33.6018 -185.828 34.947 -187.949L36.752 -189.62C31.1069 -189.493 27.5084 -187.857 23.059 -187.108C22.3232 -187.269 20.8401 -187.603 21.116 -187.868C20.2077 -185.31 7.62991 -188.076 0.927116 -186.093C-0.521515 -186.197 -2.06212 -186.289 -3.67171 -186.347C-4.47651 -186.37 -5.2928 -186.405 -6.12059 -186.428C-6.53449 -186.451 -6.95988 -186.474 -7.38527 -186.497C-8.98337 -186.554 -10.6274 -186.601 -12.1911 -186.658C-12.2945 -183.293 -12.49 -181.391 -13.3063 -177.277C-12.536 -168.15 -11.6047 -159.817 -12.1566 -149.399C-12.398 -151.474 -12.467 -154.32 -13.0188 -154.908C-13.7776 -148.373 -13.0993 -146.76 -12.6854 -140.79C-13.0648 -142.127 -14.18 -127.721 -15.0883 -120.449C-14.318 -111.379 -12.9499 -114.491 -12.0991 -113.581C-14.6284 -105.283 -10.478 -87.973 -12.7659 -77.5894C-13.1108 -80.724 -14.0076 -90.8196 -14.6399 -83.2825C-17.1578 -74.9848 -12.7774 -66.5603 -13.9846 -53.1803L-11.8921 -56.4648C-13.1913 -50.5181 -10.6849 -36.7808 -12.8119 -38.1522C-12.0531 -33.6691 -13.5017 -22.3865 -11.4552 -23.8732C-11.8576 -18.6871 -12.0186 -12.9709 -12.0646 -7.08186C-12.0646 -4.78847 -12.0646 -2.46049 -12.0761 -0.132523C-12.0646 1.22737 -12.0531 2.58728 -12.0416 3.92413C-10.5355 3.92413 -9.07534 3.92412 -7.6612 3.94717C-6.66096 3.98175 -5.67221 4.00479 -4.70645 4.03937C-3.23483 4.07394 -1.79769 4.13156 -0.418041 4.20071C5.12355 4.47731 9.92933 4.99591 13.4819 5.96397C16.6206 5.61824 24.4616 5.96399 22.852 4.91525C17.6324 3.77432 15.5629 5.73349 13.6314 4.94983C16.4482 4.8922 17.0575 4.3275 17.3564 4.0509C24.1742 4.52341 29.5318 4.67323 23.0935 6.36734C38.2466 7.63506 38.718 2.88692 58.0101 3.68211C57.1363 4.53493 58.5965 4.84608 64.2415 4.71931L74.9453 3.26723C87.4196 3.60144 82.0275 5.19183 82.3264 6.6324C88.9947 6.37886 97.1577 6.45953 100.17 5.38774L108.264 7.19711C102.366 5.89484 113.748 6.33278 116.887 5.97551L113.748 6.33276C114.978 6.94357 122.681 6.56325 126.579 6.37886C125.67 5.49147 117.795 5.1342 113.507 4.86914C116.921 4.23529 122.21 4.38512 126.728 3.63602C125.234 5.04202 137.593 4.63866 142.882 4.78848C148.964 5.08812 149.734 3.52077 151.504 3.5784C151.654 4.31596 161.426 3.70515 156.69 4.71931C154.62 4.94981 151.953 4.00479 148.527 4.65018C152.539 5.19183 152.068 6.47107 160.38 5.53757C166.646 4.83456 158.77 2.76015 170.647 3.64754C167.52 3.99327 166.945 4.55797 164.542 5.06506L175.66 5.79111L176.131 4.51189C177.626 4.83456 176.591 4.94981 177.292 5.12268C180.603 3.77431 194.273 4.70781 196.791 3.18655C202.413 3.05978 208.61 4.07394 213.968 4.22377L212.945 4.33902C219.498 5.09964 228.201 4.59256 233.697 3.72821L233.398 4.00479C236.974 4.10852 245.435 3.90109 249.908 3.15199C258.956 4.12006 252.955 7.99231 262.946 6.37886C272.12 6.33276 277.328 4.02785 273.626 3.20959C290.113 4.07394 308.819 1.98799 324.098 3.97023C326.467 3.45161 324.972 3.12892 329.859 2.82928C354.06 3.33636 380.963 1.30804 400.221 3.83194C393.196 4.3736 399.749 5.11116 399.899 5.84874C405.682 4.69627 406.854 7.0473 408.935 5.0766C408.349 3.91261 408.935 3.3479 402.118 2.88692C416.546 2.26459 438.494 2.26459 446.519 3.3479C442.507 2.80624 445.611 2.46051 448.773 2.10324C447.715 3.94717 458.373 4.23529 466.421 3.5784L467.559 2.44899L472.79 3.61296C475.894 3.25571 476.216 1.25043 484.207 2.33374C484.621 2.77167 485.081 3.20959 486.552 3.53229C494.888 2.61032 506.626 1.0545 515.674 1.99953L523.078 3.64754C526.941 3.46315 533.437 2.48357 526.643 1.99953C542.072 2.99065 552.017 3.11742 556.914 4.53494C583.484 1.06604 622.057 0.927734 652.961 1.18127L652.053 2.02257C660.354 2.81776 656.364 0.547424 662.159 1.13518C659.468 1.94191 668.482 2.88692 661.963 3.8665C673.84 4.75391 677.266 2.40288 684.992 2.02257C686.164 0.916199 678.783 2.73711 680.278 1.3311C681.6 0.93927 696.707 2.19543 698.547 0.512848C701.525 1.16975 699.214 2.40288 697.604 3.08282L704.859 2.27611C713.734 4.23529 684.635 5.77959 693.948 8.18823L700.651 7.92317C707.032 9.67491 682.957 9.9054 699.742 10.5047C707.032 9.6749 713.263 7.24321 706.767 6.50563C721.92 6.04465 713.792 2.50661 730.083 2.6449C734.544 3.63602 717.034 2.87538 720.173 4.25835C727.853 5.60672 735.59 3.49771 742.408 3.98175C734.82 3.34789 741.235 1.65378 746.145 1.35414C754.446 2.14934 740.764 2.94453 752.503 3.10588C754.446 2.13782 765.241 1.41176 755.906 0.743332C760.148 -1.44633 768.127 1.35414 774.52 -0.351501C778.348 1.19279 762.425 3.22113 775.336 3.99329C773.289 2.50661 791.259 1.96495 784.441 -0.236252C789.5 0.19017 790.029 1.36566 786.338 2.27611C793.57 3.18655 803.872 -0.432175 806.251 2.50659L808.735 0.985352C811 1.48091 814.242 1.8497 817.932 2.67947C824.313 2.70253 838.443 0.616562 837.868 2.92148C839.915 2.67946 854.447 2.7832 848.837 1.20433C839.8 0.236267 838.455 2.36832 833.419 0.213211C839.8 1.96495 846.445 -0.0172729 851.676 -0.593506L852.527 0.293869C855.631 -0.0518646 862.794 0.144058 864.737 -0.824005C862.357 -0.316925 863.587 0.293884 866.071 0.501328L869.324 -0.847046C881.96 -1.51547 872.302 1.52702 884.593 1.13518L875.245 2.18391C877.292 1.96494 881.477 3.22112 887.363 2.79471C889.651 1.56158 893.94 0.086441 895.917 -0.870102C902.85 -1.41176 899.021 0.524368 905.839 -0.743332L896.906 0.743332C895.561 1.1467 902.93 2.78319 912.185 2.74863C918.095 2.3222 927.293 0.535904 917.946 -0.132523C922.602 -0.155579 929.109 0.593521 925.407 1.49245C935.927 1.06604 924.028 0.167114 933.11 -0.593506C936.824 0.224747 948.378 1.40024 955.357 2.58728L945.883 4.65018L952.195 4.67323C944.032 6.33276 956.323 5.94093 951.735 7.68115C956.035 7.95773 961.244 7.35846 965.394 6.909C952.805 4.12004 979.501 3.09436 975.845 0.547424C993.079 -0.144058 986.618 6.73613 1004.6 2.76013C1001.66 2.09171 1010.14 0.155579 999.276 0.893158C1009.99 1.16975 1006.56 -1.6653 1019.21 -0.605042C1009.83 0.443695 1029.26 1.97647 1015.73 3.48619C1016.64 2.6449 1008.19 2.84081 1006.11 3.08282C1010.53 4.05089 1005.2 5.64128 1016.18 5.64128C1022.87 5.39928 1032.04 5.35318 1030.72 4.02785C1030.43 2.57574 1020.49 4.18919 1024.78 2.71405C1038.12 2.20697 1040.34 4.41968 1045.87 1.83817C1037.45 2.03409 1035.33 0.535889 1035.48 -0.466751L1045.29 -1.07756L1043.39 -0.109482C1059.1 0.582001 1048.02 -1.86122 1063.26 -1.60768L1070.4 0.305405C1066.78 1.95343 1048.24 -0.432175 1050.96 2.25305C1060.85 2.3683 1064.13 0.996872 1073.47 1.69987C1071.39 1.93037 1068.56 1.99953 1066.5 2.23001C1070.05 2.32222 1073.58 5.8718 1087.7 3.79736C1094.99 2.99065 1089.63 2.84081 1089.8 1.83817C1105.69 1.53853 1110.44 0.512848 1120.68 0.351501C1118.58 2.31068 1138.77 0.535889 1127.47 2.54117C1122.26 1.3887 1099.28 1.50395 1093.64 3.37094C1099.43 5.68738 1081.17 3.04826 1077.74 5.39928C1090.49 5.45691 1089.88 7.73877 1091.93 9.23697C1095.47 9.3407 1098.9 8.70683 1101 8.47635C1102.5 7.07034 1097.87 7.09338 1097.61 5.64128C1111.83 6.02161 1125.53 5.23793 1133.37 3.8665C1138.11 4.55798 1136.62 5.97551 1131 6.10228C1147.92 5.68739 1166.01 5.8718 1182.07 6.2982C1171.69 4.00481 1199.99 5.75653 1192.91 3.84346C1184.3 3.32484 1176.89 1.68835 1181.64 0.651138C1187.02 0.800949 1181.47 1.65378 1183.72 2.14934C1190.58 0.893158 1194.38 4.16614 1201.11 2.18391C1185.66 2.92148 1198.09 4.98439 1195.26 6.79375C1206.41 5.77959 1194.78 8.07298 1205.8 8.07298C1216.92 7.07034 1230.56 6.27515 1242.91 5.89484C1258.42 7.60046 1282.18 5.92941 1296.04 5.86026C1303.28 6.77071 1298.37 8.81056 1306.25 9.1563C1315.47 9.1102 1299.4 6.95509 1313.07 7.88858L1311.76 8.29195C1315.88 7.81944 1336.8 9.67491 1340.84 6.74765L1336.62 8.96037C1339.16 9.1563 1341.53 8.64922 1343.65 8.41872C1343.75 9.13324 1346.72 9.79016 1342.57 10.2627C1350.99 11.7839 1360.27 10.0206 1369.44 9.96301L1363.54 8.66075C1379.24 7.63506 1389.74 8.92581 1404.9 8.47635L1404.46 9.75558L1413.48 8.99495C1411.29 10.2281 1419.56 11.0348 1424.33 9.99759L1400.86 13.1323C1394.34 12.3832 1407.97 11.588 1403.88 10.3318C1400.41 9.23697 1386.36 9.57118 1384.08 10.8043C1389.46 10.9426 1389.73 10.666 1393.89 10.205C1395.67 11.9798 1387.51 11.9107 1383.46 13.0977C1386.28 13.0285 1390.28 13.5702 1390.89 13.0055C1385.37 13.8698 1379.78 14.0081 1370.56 14.0542C1376.81 13.3628 1367.17 12.9594 1369.54 12.4408C1368.8 14.0082 1360 14.4922 1348.61 14.0542C1340.47 12.2449 1327.23 15.2182 1314.02 14.7227C1319.37 13.1323 1326.21 11.8646 1334.24 11.2192C1325.97 10.424 1325.02 11.2653 1316.72 10.4586C1312.71 11.6456 1309.85 13.455 1299.04 14.1695L1298.45 12.994C1288.65 13.5933 1288.65 15.322 1276.17 14.9993C1254.81 14.423 1232.83 14.423 1216.52 14.2732L1215.9 13.1092C1206.84 15.6101 1185.67 14.0312 1173.47 15.1376C1152.68 14.0081 1128.34 16.2554 1117.68 14.2386C1081.02 15.1376 1048.97 16.0134 1010.98 15.587L1017.36 13.8814C1010.55 15.126 1012.95 12.9018 1006.27 13.1553C1013.93 14.5152 997.011 14.9186 992.297 15.9558C975.385 14.6305 953.667 16.0711 938.686 17.2696L938.1 16.1056C922.947 18.2953 904.85 16.3707 885.972 16.0134C883.799 15.5294 880.385 14.4346 874.763 14.5613C864.519 16.4514 859.161 16.3131 844.146 17.5001C833.178 17.5001 815.38 17.0276 804.228 16.3015C762.965 18.9522 720.817 17.2581 677.944 18.86L674.84 17.4886C633.255 20.4273 582.116 17.7536 546.624 19.2634L550.051 16.9123C538.933 16.1863 524.688 17.5347 527.516 19.1942C516.364 18.4797 499.682 20.3351 492.6 18.4105C481.195 17.9726 478.642 19.4939 469.169 19.805C446.335 18.9176 437.851 19.1136 416.34 19.5515L421.674 19.7013C424.043 19.1827 424.25 18.1801 418.892 18.0418C410.878 18.6871 389.367 17.4079 397.358 20.2084C374.375 18.5834 343.758 21.5222 321.408 19.344C323.317 20.1162 317.672 20.2545 315.292 20.7731C295.137 20.8077 273.937 19.2518 257.841 20.5426C254.622 20.1623 262.946 19.2403 254.737 19.1597C249.873 19.4478 254.622 20.1623 248.643 20.5887C215.98 22.0177 182.5 19.1136 152.804 19.4823C99.9975 20.9575 44.9149 20.2084 -5.67221 20.4619L-5.09735 19.8972L-5.90215 19.9894L-6.31604 20.0355L-7.02886 20.0816C-7.99462 20.1277 -8.96037 20.1853 -9.93762 20.2314C-11.9036 20.3236 -13.9271 20.3813 -15.9851 20.4274C-20.101 20.5195 -24.332 20.5426 -28.5629 20.508C-28.5169 14.1234 -28.3674 7.58894 -28.218 1.26193L-28.1605 -1.10059L-28.103 -2.73708C-28.0685 -3.636 -28.0225 -4.52341 -27.988 -5.4108C-27.9306 -7.18558 -27.8616 -8.93733 -27.8041 -10.6545C-27.6316 -17.5347 -27.7811 -23.8963 -28.9883 -28.9671C-28.4479 -32.9776 -28.7353 -44.3063 -27.6546 -41.3099C-29.1722 -54.8398 -26.229 -79.1798 -28.149 -98.7255C-28.2065 -96.9276 -28.0915 -95.9019 -27.8386 -93.8275C-26.5969 -113.569 -28.2985 -130.994 -27.1717 -151.831C-26.9303 -149.71 -26.7578 -145.873 -26.1945 -145.262C-25.1138 -153.294 -28.5629 -164.335 -25.8611 -168.749C-25.8841 -173.359 -27.2177 -172.033 -27.1373 -169.198C-27.0683 -173.232 -26.9993 -177.289 -26.9188 -181.38C-26.8843 -187.972 -26.8498 -194.622 -26.8153 -201.34C-19.3537 -201.34 -11.8576 -201.34 -4.32705 -201.34C0.51322 -201.375 5.36499 -201.41 10.2398 -201.444C19.9893 -201.594 29.8078 -201.744 39.6378 -201.882C59.3208 -202.239 79.1072 -202.689 98.6753 -202.942C132.626 -201.317 100.745 -198.379 127.533 -200.395C129.717 -199.877 129.108 -201.433 129.487 -200.868C139.846 -201.629 145.618 -197.837 152.815 -199.255C149.849 -200.926 157.598 -200.188 157.816 -201.202C178.557 -200.119 182.73 -198.621 199.114 -199.888L197.884 -199.013C217.084 -201.49 239.331 -200.165 255.53 -203.023C361.418 -203.542 462.914 -205.132 566.169 -205.455C668.229 -204.913 768.15 -206.192 871.773 -204.683C896.055 -202.378 897.883 -202.435 924.545 -203.369C923.476 -203 921.797 -202.908 923.579 -202.562C924.913 -204.452 942.365 -202.735 944.906 -204.544C983.226 -204.187 1018.52 -204.706 1057.93 -204.717C1051.7 -204.51 1048.58 -202.965 1055.98 -203.092L1063.74 -204.302L1064.99 -203.772C1070.05 -204.049 1075.58 -204.982 1070.35 -205.593C1169.39 -207.23 1266.8 -203.438 1363.8 -203.899C1386.84 -203.115 1419.62 -203.83 1444.64 -204.222C1452.59 -204.072 1460.5 -203.922 1468.02 -203.784C1467.89 -195.924 1467.74 -188.11 1467.6 -180.32C1467.46 -176.021 1467.32 -171.745 1467.2 -167.493C1466.94 -158.976 1466.7 -150.529 1466.46 -142.116C1466 -125.29 1465.63 -108.625 1465.38 -91.9029C1464.87 -58.4701 1464.86 -24.8182 1465.69 10.7121C1465.69 10.7121 1460.81 0.858582 1459.69 -30.327L1459.66 -30.4192Z" fill="#F1E1D2"/>
<path d="M1434.62 13.9276C1431.99 12.9826 1423.36 12.4639 1430.23 11.2078C1431.08 12.0952 1435.53 13.0863 1434.62 13.9276Z" fill="#F1E1D2"/>
<path d="M1204.3 4.2008C1204 4.47739 1201.03 3.82048 1200.29 3.65914C1203.13 3.58999 1205.79 2.7948 1208.05 3.29036C1205.18 3.35951 1205.61 3.80896 1204.3 4.2008Z" fill="#F1E1D2"/>
<path d="M1145.42 3.63592C1146.3 2.79462 1158.9 2.12618 1166.34 2.02246L1145.42 3.63592Z" fill="#F1E1D2"/>
<path d="M1086.64 2.09178C1082.08 2.11483 1079.82 1.61929 1077.59 1.13525C1077.78 1.84978 1088.16 0.685779 1086.64 2.09178Z" fill="#F1E1D2"/>
<path d="M912.163 0.916218C910.37 0.858595 909.645 0.708762 907.564 0.939254C904.288 0.558943 907.748 -0.0633708 910.519 -0.144043L912.163 0.916218Z" fill="#F1E1D2"/>
</g>
<defs>
<clipPath id="clip0_4318_42248">
<rect width="1497" height="20" fill="white" transform="translate(-29 0.899902)"/>
</clipPath>
</defs>
</svg>
