<svg width="215" height="205" viewBox="0 0 215 205" fill="none" xmlns="http://www.w3.org/2000/svg">
<g clip-path="url(#clip0_4392_51753)">
<path d="M102.93 185.33C102.51 201.22 116.97 206.63 128.84 203.49C136.47 201.47 143.27 196.63 143.54 186.42C143.77 177.89 139.1 173.05 133.34 169.94C121.48 163.53 103.4 167.75 102.93 185.33Z" fill="#EABD75"/>
<path d="M157.69 147.74C155.61 163.5 169.42 170.39 181.56 168.52C189.36 167.31 196.63 163.21 197.97 153.08C199.09 144.62 194.96 139.32 189.55 135.62C178.43 128 160.01 130.31 157.7 147.74H157.69Z" fill="#EABD75"/>
<path d="M174.31 85.9C178.16 101.32 193.55 102.66 204.14 96.45C210.95 92.46 216.2 85.98 213.72 76.06C211.65 67.78 205.86 64.37 199.47 62.92C186.32 59.93 170.04 68.84 174.3 85.9H174.31Z" fill="#EABD75"/>
<path d="M155.75 46.59C163.63 46.84 171.53 44.14 174.71 34.43C177.36 26.31 174.27 20.35 169.64 15.73C160.1 6.2 141.57 5.08 136.1 21.79C131.16 36.9 143.48 46.22 155.75 46.59Z" fill="#EABD75"/>
<path d="M89.7503 36.63C97.4503 34.9 104.42 30.32 105.07 20.11C105.61 11.59 101.13 6.59 95.4903 3.26C83.8703 -3.59 65.6503 -0.0299969 64.5303 17.51C63.5103 33.38 77.7703 39.32 89.7503 36.63Z" fill="#EABD75"/>
<path d="M39.9102 70.49C46.0802 65.57 50.3702 58.41 46.5102 48.95C43.2902 41.04 37.0802 38.49 30.5502 37.96C17.1102 36.85 2.26024 47.98 8.89024 64.26C14.8902 78.99 30.3102 78.13 39.9102 70.49Z" fill="#EABD75"/>
<path d="M24.9602 144.66C32.6902 143.06 39.7402 138.6 40.5702 128.42C41.2602 119.91 36.8702 114.83 31.2902 111.41C19.7902 104.36 1.52021 107.58 0.0802096 125.11C-1.20979 140.96 12.9402 147.15 24.9602 144.66Z" fill="#EABD75"/>
<path d="M70.58 197.46C77.14 193.09 82.02 186.31 78.97 176.55C76.42 168.4 70.45 165.33 63.99 164.25C50.69 162.02 34.95 171.86 40.19 188.64C44.92 203.82 60.36 204.26 70.58 197.46Z" fill="#EABD75"/>
<path d="M104.99 151.62C107.06 151.87 109.12 152.13 111.21 152.16C119.76 152.29 128.13 148.57 134.41 142.77C137.23 140.17 139.66 137.19 141.9 134.07C147.07 126.87 151.29 118.79 152.84 110.07C154.43 101.09 156.12 91.51 151.07 83.33C148.26 78.78 144.13 75.02 140.03 71.64C137.52 69.56 134.94 67.55 132.15 65.85C119.05 57.84 102.72 53.75 87.7004 58.12C78.1604 60.89 69.5404 66.93 64.0204 75.18C61.8104 78.48 60.1104 82.08 58.4704 85.7C56.9104 89.15 55.3804 92.65 54.6704 96.37C52.8904 105.66 54.5204 116.95 59.5104 125.02C62.2004 129.37 65.6904 133.15 69.1604 136.92C70.4504 138.32 71.7404 139.71 73.1604 140.98C81.6704 148.53 93.7204 150.24 105.01 151.62H104.99Z" fill="#CC8569"/>
</g>
<defs>
<clipPath id="clip0_4392_51753">
<rect width="214.35" height="204.34" fill="white"/>
</clipPath>
</defs>
</svg>
