<?xml version="1.0" encoding="UTF-8"?>
<svg xmlns="http://www.w3.org/2000/svg" width="70" height="70" viewBox="0 0 70 70" fill="none">
  <g id="Color=White" clip-path="url(#clip0_1392_794)">
    <g id="Vector">
      <path d="M0 35.0014C0 15.6683 15.6716 0 35 0C54.3284 0 70 15.6683 70 35.0014C70 54.3288 54.3284 70 35 70C15.6716 70 0 54.3288 0 35.0014ZM52.1724 41.247C54.3284 41.1523 56.3948 39.9279 57.638 38.1873C58.8588 36.4754 59.262 34.1584 58.45 32.1855C58.0416 31.1994 57.3528 30.362 56.4732 29.7825C55.5935 29.2135 54.5965 28.862 53.5612 28.7559C52.4131 28.6288 51.2518 28.7458 50.1499 29.0995C49.048 29.4533 48.0293 30.0363 47.1576 30.8119C46.2448 31.6349 45.5616 32.6529 44.996 33.7368C44.7356 34.2301 44.5088 34.7405 44.2652 35.2423C44.0468 35.6925 43.8172 36.1427 43.6156 36.6015C43.1884 37.5625 42.769 38.5234 42.3473 39.4895C42.3323 39.5238 42.3174 39.5581 42.3024 39.5924C40.9794 39.7685 39.6959 40.1769 38.5084 40.7996C38.9536 39.4978 39.4716 38.2188 39.9644 36.9284C40.4404 35.6868 40.852 34.4136 41.0424 33.0916C41.202 32.022 41.286 30.7976 40.726 29.8226C40.4528 29.337 40.0077 28.9776 39.4828 28.819C38.9238 28.677 38.3366 28.7029 37.7916 28.8935C37.2382 29.0897 36.7213 29.3806 36.2628 29.7538C35.7859 30.1185 35.3568 30.5445 34.986 31.0213C34.6168 31.5192 34.3013 32.0567 34.0452 32.6242C33.7652 33.2264 33.5412 33.8544 33.3704 34.4996C33.2544 34.9387 33.1563 35.3826 33.0764 35.8302C33.4152 34.6831 33.8184 33.5676 34.4624 32.5583C35.0504 31.6234 35.8372 30.7116 36.8984 30.3072C37.159 30.1967 37.4433 30.1577 37.7231 30.1939C38.003 30.2301 38.2688 30.3403 38.4944 30.5137C38.7103 30.6904 38.8838 30.9153 39.0018 31.1713C39.1197 31.4273 39.1789 31.7075 39.1748 31.9905C39.1832 32.63 38.9872 33.2723 38.8164 33.8831C38.6313 34.5377 38.423 35.1853 38.192 35.8244C37.7376 37.1021 37.2263 38.352 36.7141 39.6042C36.7055 39.6251 36.697 39.646 36.6884 39.667C36.1704 40.9459 35.6272 42.2133 35.0336 43.4607C34.6696 44.2292 34.3 44.9977 33.9276 45.7634L33.3676 46.8989C33.191 47.2715 32.9938 47.6334 32.7768 47.9829C33.46 48.046 34.1432 48.1836 34.832 48.1205C35.1008 48.0947 35.364 48.0115 35.532 47.785C35.7168 47.5384 35.8344 47.2402 35.966 46.9649C36.498 45.8265 37.156 44.7339 37.9652 43.7733C38.99 42.5517 40.2388 41.5223 41.7228 40.9057C40.53 43.3862 39.5248 45.9412 38.4132 48.4474C37.8896 49.6231 37.3352 50.7931 36.5932 51.8455C36.26 52.3315 35.8644 52.7693 35.4172 53.1473C34.975 53.5053 34.4858 53.7978 33.964 54.0162C32.9 54.4636 31.682 54.5897 30.5844 54.1653C29.4644 53.7352 28.6356 52.743 28.392 51.5702C28.1456 50.3658 28.3976 49.0553 28.9604 47.9771C29.526 46.8932 30.4444 46.1276 31.4216 45.4279L31.7688 45.1813C31.1808 45.4479 30.5704 45.7404 30.0552 46.1333C29.5708 46.4975 29.1592 46.9649 28.8148 47.4638C28.0161 48.6398 27.5703 50.0292 27.5324 51.4612C27.5044 52.6656 27.8068 53.8843 28.4732 54.8937C29.0836 55.817 30.0132 56.5196 31.0744 56.8408C33.2864 57.5003 35.686 56.5884 37.352 55.1059C38.2704 54.2886 38.9732 53.2706 39.564 52.1953C40.2015 51.0416 40.7365 49.8298 41.2696 48.6224C41.2797 48.5994 41.2899 48.5765 41.3 48.5535C41.86 47.2717 42.4144 45.9899 42.9632 44.7081C43.5092 43.4321 44.0188 42.1417 44.5592 40.8627L44.9092 40.0627C45.6008 39.9996 46.298 40.0225 46.9896 40.0713C47.334 40.0971 47.6784 40.1286 48.0228 40.1688C48.3028 40.1974 48.6108 40.2032 48.8824 40.3035C49.0168 40.3523 49.1232 40.4326 49.2408 40.5071C49.3668 40.5932 49.5012 40.6677 49.6356 40.7366C49.896 40.8656 50.1676 40.9688 50.4448 41.052C51.0048 41.2097 51.5928 41.2671 52.1724 41.247ZM51.1196 30.7718C52.2574 30.382 53.4981 30.457 54.5832 30.9811C55.5492 31.4715 56.2828 32.3719 56.5964 33.4071C56.9408 34.5598 56.7028 35.8158 56.1568 36.8653C55.6297 37.8645 54.8114 38.6704 53.816 39.1709C52.7772 39.6985 51.5228 39.9308 50.3748 39.6612C49.8193 39.5435 49.3037 39.2785 48.8796 38.8927C48.4661 38.4801 48.179 37.9529 48.0536 37.3758C47.9836 37.089 47.9416 36.7908 47.908 36.4983C47.8622 36.1753 47.8565 35.8477 47.8912 35.5233C47.8464 35.5377 47.8352 35.7241 47.8268 35.7613C47.7988 35.9104 47.7624 36.0624 47.7316 36.2115C47.6399 36.5972 47.5837 36.9908 47.5636 37.3872C47.5552 37.7686 47.5776 38.1615 47.6952 38.5285C47.8072 38.8927 48.0088 39.2167 48.1908 39.5494C47.1771 39.4264 46.1568 39.368 45.136 39.3745C45.332 38.7923 45.5924 38.2332 45.8276 37.6654C46.046 37.1435 46.2644 36.6216 46.4716 36.0968C46.7309 35.4984 47.0264 34.917 47.3564 34.3562C47.6756 33.8257 48.0396 33.3268 48.4456 32.8565C48.8208 32.4149 49.2296 31.9962 49.686 31.6234C50.1105 31.2544 50.596 30.966 51.1196 30.7718ZM29.834 44.5361C30.394 44.3153 30.45 43.5009 30.4416 42.9876L30.4388 42.8758C30.4021 42.8699 30.3656 42.8623 30.3296 42.8528L30.1168 42.8098C29.9704 42.7828 29.8227 42.7636 29.6744 42.7524C29.3692 42.7214 29.0613 42.7687 28.7784 42.8901L28.7112 42.9302C28.531 43.1172 28.4066 43.353 28.3528 43.6098C28.2968 43.8479 28.2492 44.1231 28.2548 44.3669C28.2576 44.493 28.3276 44.5389 28.4424 44.5561C28.5812 44.5693 28.7153 44.5897 28.8533 44.6107C28.8656 44.6126 28.878 44.6145 28.8904 44.6164C29.2066 44.6702 29.5308 44.6426 29.834 44.5361ZM41.7452 25.6302C41.7424 25.5041 41.6724 25.4582 41.5576 25.4439L41.1096 25.3865C40.7937 25.3308 40.4692 25.3574 40.166 25.4639C39.606 25.6847 39.5528 26.502 39.5612 27.0124V27.1214L39.6704 27.1443C39.7404 27.1615 39.8104 27.173 39.8832 27.1873C40.0293 27.2165 40.1771 27.2356 40.3256 27.2447C40.6336 27.2676 40.9416 27.2389 41.2216 27.1099L41.2916 27.0669C41.4712 26.8803 41.5938 26.6441 41.6444 26.3873C41.7004 26.1521 41.7508 25.8797 41.7452 25.6302ZM25.004 36.2603C25.2644 35.7671 25.4912 35.2566 25.732 34.7577C25.9532 34.3046 26.1772 33.8544 26.3816 33.3956C26.824 32.4034 27.2608 31.4055 27.6976 30.4076C29.0205 30.2292 30.3037 29.8199 31.4916 29.1975C31.0492 30.5022 30.5256 31.7783 30.0356 33.0687C29.5596 34.3132 29.148 35.5864 28.9576 36.9084C28.798 37.9751 28.714 39.1995 29.274 40.1745C29.554 40.6534 29.9824 41.029 30.52 41.1839C31.0548 41.3387 31.682 41.2814 32.2084 41.1065C32.7628 40.9287 33.2752 40.6018 33.7372 40.2462C34.2149 39.8813 34.6441 39.4543 35.014 38.9759C35.3811 38.478 35.6956 37.9417 35.952 37.3758C36.2376 36.7707 36.456 36.1427 36.6296 35.5004C36.7472 35.0616 36.8424 34.6172 36.9236 34.1698C36.5848 35.3111 36.1816 36.4295 35.5404 37.4417C34.9496 38.3737 34.1628 39.2884 33.1016 39.6899C32.8413 39.8014 32.5571 39.8412 32.2772 39.8055C31.9972 39.7698 31.7312 39.6598 31.5056 39.4863C31.2889 39.3097 31.1147 39.0844 30.9967 38.8278C30.8787 38.5712 30.82 38.2902 30.8252 38.0066C30.8168 37.3672 31.0128 36.7248 31.1808 36.114C31.3656 35.4574 31.5812 34.8122 31.808 34.1727C32.2624 32.895 32.7738 31.645 33.286 30.3927C33.2946 30.3719 33.3031 30.351 33.3116 30.3302C33.8324 29.0512 34.3756 27.7838 34.9664 26.5364C35.3304 25.7708 35.7028 25.0023 36.0724 24.2337L36.6324 23.0982C36.8144 22.7311 37.002 22.3612 37.226 22.0143C36.5428 21.9512 35.8568 21.8135 35.168 21.8795C34.8992 21.9024 34.636 21.9884 34.468 22.2121C34.2832 22.4616 34.1656 22.757 34.0368 23.0351C33.5084 24.1848 32.8353 25.2587 32.0348 26.2296C31.01 27.4483 29.7584 28.4777 28.2772 29.0914C29.47 26.6167 30.478 24.0588 31.5868 21.5497C32.1104 20.374 32.662 19.204 33.4068 18.1517C33.7456 17.6728 34.1236 17.2283 34.5828 16.8526C35.0224 16.4942 35.5124 16.2017 36.0332 15.9838C37.1 15.5393 38.318 15.4103 39.4156 15.8347C40.5356 16.2648 41.3644 17.257 41.608 18.4327C41.8544 19.6342 41.6024 20.9447 41.0396 22.0229C40.474 23.1068 39.5556 23.8724 38.5784 24.5693L38.2312 24.8159C38.8192 24.5492 39.4296 24.2567 39.9448 23.8696C40.4292 23.5025 40.8408 23.0351 41.1852 22.5333C41.9861 21.3584 42.4321 19.9683 42.4676 18.5359C42.5068 17.3207 42.1782 16.1228 41.5268 15.1063C40.9051 14.1699 39.986 13.4829 38.9256 13.1621C36.7136 12.4997 34.314 13.4116 32.648 14.8941C31.7296 15.7114 31.024 16.7293 30.436 17.8018C29.7892 18.9804 29.2404 20.2134 28.7 21.4493C28.14 22.7254 27.5856 24.0072 27.0368 25.2919C26.4936 26.5679 25.9812 27.8583 25.438 29.1344L25.0936 29.9373C24.4001 29.9929 23.7034 29.99 23.0104 29.9287C22.666 29.9 22.3216 29.8714 21.9772 29.8312C21.6916 29.8025 21.3892 29.7939 21.1176 29.6964C20.9832 29.6448 20.8768 29.5645 20.7592 29.49C20.388 29.2467 19.9817 29.0648 19.5552 28.9509C18.9927 28.7941 18.4101 28.7264 17.8276 28.7501C15.6716 28.8476 13.6052 30.0692 12.362 31.8127C11.1384 33.5246 10.738 35.8388 11.55 37.8116C11.9476 38.7923 12.6448 39.6268 13.5296 40.2175C14.3976 40.7939 15.4084 41.1265 16.4416 41.247C17.5894 41.3721 18.75 41.2539 19.8512 40.8996C20.9524 40.5454 21.9706 39.9628 22.8424 39.1881C23.7524 38.3622 24.4384 37.3442 25.004 36.2632V36.2603ZM22.4364 32.6128C22.4563 32.2265 22.4118 31.8396 22.3048 31.4686C22.1928 31.1073 21.9912 30.7804 21.8092 30.4506C22.8228 30.5797 23.8448 30.6227 24.864 30.6227C24.668 31.2048 24.4076 31.764 24.1724 32.3317C23.954 32.8565 23.7356 33.3755 23.5284 33.9003C23.27 34.4992 22.9744 35.0806 22.6436 35.6409C22.3244 36.1714 21.9576 36.6732 21.5544 37.1435C21.1792 37.5851 20.7704 38.0038 20.314 38.3765C19.8889 38.7447 19.4035 39.0331 18.8804 39.2282C17.7425 39.6186 16.5012 39.5426 15.4168 39.016C14.9385 38.7721 14.5135 38.4313 14.1674 38.0143C13.8214 37.5974 13.5615 37.1128 13.4036 36.5901C13.0592 35.4373 13.2972 34.1813 13.8432 33.1346C14.3693 32.134 15.1877 31.3269 16.184 30.8263C17.2228 30.2986 18.4772 30.0664 19.6224 30.3359C20.1768 30.465 20.706 30.7144 21.1204 31.1102C21.5488 31.5173 21.8064 32.0507 21.9464 32.6214C22.0164 32.9081 22.0584 33.2063 22.0864 33.5017C22.1228 33.8229 22.1564 34.1526 22.1088 34.4767C22.1536 34.4623 22.1648 34.2759 22.1732 34.2387C22.1984 34.0867 22.2376 33.9376 22.2712 33.7885C22.358 33.3985 22.4196 33.0113 22.4364 32.6128Z" fill="#1C1A23"></path>
      <path fill-rule="evenodd" clip-rule="evenodd" d="M25.004 36.2603C25.2644 35.7671 25.4912 35.2566 25.732 34.7577C25.9532 34.3046 26.1772 33.8544 26.3816 33.3956C26.824 32.4034 27.2608 31.4055 27.6976 30.4076C29.0205 30.2292 30.3037 29.8199 31.4916 29.1975C31.0492 30.5022 30.5256 31.7783 30.0356 33.0687C29.5596 34.3132 29.148 35.5864 28.9576 36.9084C28.798 37.9751 28.714 39.1995 29.274 40.1745C29.554 40.6534 29.9824 41.029 30.52 41.1839C31.0548 41.3387 31.682 41.2814 32.2084 41.1065C32.7628 40.9287 33.2752 40.6018 33.7372 40.2462C34.2149 39.8813 34.6441 39.4543 35.014 38.9759C35.3811 38.478 35.6956 37.9417 35.952 37.3758C36.2376 36.7707 36.456 36.1427 36.6296 35.5004C36.7472 35.0616 36.8424 34.6172 36.9236 34.1698C36.5848 35.3111 36.1816 36.4295 35.5404 37.4417C34.9496 38.3737 34.1628 39.2884 33.1016 39.6899C32.8413 39.8014 32.5571 39.8412 32.2772 39.8055C31.9972 39.7698 31.7312 39.6598 31.5056 39.4863C31.2889 39.3097 31.1147 39.0844 30.9967 38.8278C30.8787 38.5712 30.82 38.2902 30.8252 38.0066C30.8168 37.3672 31.0128 36.7248 31.1808 36.114C31.3656 35.4574 31.5812 34.8122 31.808 34.1727C32.2624 32.895 32.7738 31.645 33.286 30.3927L33.3116 30.3302C33.8324 29.0512 34.3756 27.7838 34.9664 26.5364C35.3304 25.7708 35.7028 25.0023 36.0724 24.2337L36.6324 23.0982C36.8144 22.7311 37.002 22.3612 37.226 22.0143C36.5428 21.9512 35.8568 21.8135 35.168 21.8795C34.8992 21.9024 34.636 21.9884 34.468 22.2121C34.2832 22.4616 34.1656 22.757 34.0368 23.0351C33.5084 24.1848 32.8353 25.2587 32.0348 26.2296C31.01 27.4483 29.7584 28.4777 28.2772 29.0914C29.47 26.6167 30.478 24.0588 31.5868 21.5497C32.1104 20.374 32.662 19.204 33.4068 18.1517C33.7456 17.6728 34.1236 17.2283 34.5828 16.8526C35.0224 16.4942 35.5124 16.2017 36.0332 15.9838C37.1 15.5393 38.318 15.4103 39.4156 15.8347C40.5356 16.2648 41.3644 17.257 41.608 18.4327C41.8544 19.6342 41.6024 20.9447 41.0396 22.0229C40.474 23.1068 39.5556 23.8724 38.5784 24.5693L38.2312 24.8159C38.8192 24.5492 39.4296 24.2567 39.9448 23.8696C40.4292 23.5025 40.8408 23.0351 41.1852 22.5333C41.9861 21.3584 42.4321 19.9683 42.4676 18.5359C42.5068 17.3207 42.1782 16.1228 41.5268 15.1063C40.9051 14.1699 39.986 13.4829 38.9256 13.1621C36.7136 12.4997 34.314 13.4116 32.648 14.8941C31.7296 15.7114 31.024 16.7293 30.436 17.8018C29.7892 18.9804 29.2404 20.2134 28.7 21.4493C28.14 22.7254 27.5856 24.0072 27.0368 25.2919C26.4936 26.5679 25.9812 27.8583 25.438 29.1344L25.0936 29.9373C24.4001 29.9929 23.7034 29.99 23.0104 29.9287C22.666 29.9 22.3216 29.8714 21.9772 29.8312C21.6916 29.8025 21.3892 29.7939 21.1176 29.6964C20.9832 29.6448 20.8768 29.5645 20.7592 29.49C20.388 29.2467 19.9817 29.0648 19.5552 28.9509C18.9927 28.7941 18.4101 28.7264 17.8276 28.7501C15.6716 28.8476 13.6052 30.0692 12.362 31.8127C11.1384 33.5246 10.738 35.8388 11.55 37.8116C11.9476 38.7923 12.6448 39.6268 13.5296 40.2175C14.3976 40.7939 15.4084 41.1265 16.4416 41.247C17.5894 41.3721 18.75 41.2539 19.8512 40.8996C20.9524 40.5454 21.9706 39.9628 22.8424 39.1881C23.7524 38.3622 24.4384 37.3442 25.004 36.2632V36.2603ZM22.3048 31.4686C22.4118 31.8396 22.4563 32.2265 22.4364 32.6128C22.4196 33.0113 22.358 33.3985 22.2712 33.7885C22.2376 33.9376 22.1984 34.0867 22.1732 34.2387C22.1648 34.2759 22.1536 34.4623 22.1088 34.4767C22.1564 34.1526 22.1228 33.8229 22.0864 33.5017C22.0584 33.2063 22.0164 32.9081 21.9464 32.6214C21.8064 32.0507 21.5488 31.5173 21.1204 31.1102C20.706 30.7144 20.1768 30.465 19.6224 30.3359C18.4772 30.0664 17.2228 30.2986 16.184 30.8263C15.1877 31.3269 14.3693 32.134 13.8432 33.1346C13.2972 34.1813 13.0592 35.4373 13.4036 36.5901C13.5615 37.1128 13.8214 37.5974 14.1674 38.0143C14.5135 38.4313 14.9385 38.7721 15.4168 39.016C16.5012 39.5426 17.7425 39.6186 18.8804 39.2282C19.4035 39.0331 19.8889 38.7447 20.314 38.3765C20.7704 38.0038 21.1792 37.5851 21.5544 37.1435C21.9576 36.6732 22.3244 36.1714 22.6436 35.6409C22.9744 35.0806 23.27 34.4992 23.5284 33.9003C23.7356 33.3755 23.954 32.8565 24.1724 32.3317C24.4076 31.764 24.668 31.2048 24.864 30.6227C23.8448 30.6227 22.8228 30.5797 21.8092 30.4506C21.9912 30.7804 22.1928 31.1073 22.3048 31.4686Z" fill="white"></path>
      <path fill-rule="evenodd" clip-rule="evenodd" d="M52.1724 41.247C54.3284 41.1523 56.3948 39.9279 57.638 38.1873C58.8588 36.4754 59.262 34.1584 58.45 32.1855C58.0416 31.1994 57.3528 30.362 56.4732 29.7825C55.5935 29.2135 54.5965 28.862 53.5612 28.7559C52.4131 28.6288 51.2518 28.7458 50.1499 29.0995C49.048 29.4533 48.0293 30.0363 47.1576 30.8119C46.2448 31.6349 45.5616 32.6529 44.996 33.7368C44.7356 34.2301 44.5088 34.7405 44.2652 35.2423C44.0468 35.6925 43.8172 36.1427 43.6156 36.6015C43.1884 37.5625 42.769 38.5234 42.3473 39.4895L42.3024 39.5924C40.9794 39.7685 39.6959 40.1769 38.5084 40.7996C38.9536 39.4978 39.4716 38.2188 39.9644 36.9284C40.4404 35.6868 40.852 34.4136 41.0424 33.0916C41.202 32.022 41.286 30.7976 40.726 29.8226C40.4528 29.337 40.0077 28.9776 39.4828 28.819C38.9238 28.677 38.3366 28.7029 37.7916 28.8935C37.2382 29.0897 36.7213 29.3806 36.2628 29.7538C35.7859 30.1185 35.3568 30.5445 34.986 31.0213C34.6168 31.5192 34.3013 32.0567 34.0452 32.6242C33.7652 33.2264 33.5412 33.8544 33.3704 34.4996C33.2544 34.9387 33.1563 35.3826 33.0764 35.8302C33.4152 34.6831 33.8184 33.5676 34.4624 32.5583C35.0504 31.6234 35.8372 30.7116 36.8984 30.3072C37.159 30.1967 37.4433 30.1577 37.7231 30.1939C38.003 30.2301 38.2688 30.3403 38.4944 30.5137C38.7103 30.6904 38.8838 30.9153 39.0018 31.1713C39.1197 31.4273 39.1789 31.7075 39.1748 31.9905C39.1832 32.63 38.9872 33.2723 38.8164 33.8831C38.6313 34.5377 38.423 35.1853 38.192 35.8244C37.7376 37.1021 37.2263 38.352 36.7141 39.6042L36.6884 39.667C36.1704 40.9459 35.6272 42.2133 35.0336 43.4607C34.6696 44.2292 34.3 44.9977 33.9276 45.7634L33.3676 46.8989C33.191 47.2715 32.9938 47.6334 32.7768 47.9829C33.46 48.046 34.1432 48.1836 34.832 48.1205C35.1008 48.0947 35.364 48.0115 35.532 47.785C35.7168 47.5384 35.8344 47.2402 35.966 46.9649C36.498 45.8265 37.156 44.7339 37.9652 43.7733C38.99 42.5517 40.2388 41.5223 41.7228 40.9057C40.53 43.3862 39.5248 45.9412 38.4132 48.4474C37.8896 49.6231 37.3352 50.7931 36.5932 51.8455C36.26 52.3315 35.8644 52.7693 35.4172 53.1473C34.975 53.5053 34.4858 53.7978 33.964 54.0162C32.9 54.4636 31.682 54.5897 30.5844 54.1653C29.4644 53.7352 28.6356 52.743 28.392 51.5702C28.1456 50.3658 28.3976 49.0553 28.9604 47.9771C29.526 46.8932 30.4444 46.1276 31.4216 45.4279L31.7688 45.1813C31.1808 45.4479 30.5704 45.7404 30.0552 46.1333C29.5708 46.4975 29.1592 46.9649 28.8148 47.4638C28.0161 48.6398 27.5703 50.0292 27.5324 51.4612C27.5044 52.6656 27.8068 53.8843 28.4732 54.8937C29.0836 55.817 30.0132 56.5196 31.0744 56.8408C33.2864 57.5003 35.686 56.5884 37.352 55.1059C38.2704 54.2886 38.9732 53.2706 39.564 52.1953C40.2015 51.0416 40.7365 49.8298 41.2696 48.6224L41.3 48.5535C41.86 47.2717 42.4144 45.9899 42.9632 44.7081C43.5092 43.4321 44.0188 42.1417 44.5592 40.8627L44.9092 40.0627C45.6008 39.9996 46.298 40.0225 46.9896 40.0713C47.334 40.0971 47.6784 40.1286 48.0228 40.1688C48.3028 40.1974 48.6108 40.2032 48.8824 40.3035C49.0168 40.3523 49.1232 40.4326 49.2408 40.5071C49.3668 40.5932 49.5012 40.6677 49.6356 40.7366C49.896 40.8656 50.1676 40.9688 50.4448 41.052C51.0048 41.2097 51.5928 41.2671 52.1724 41.247ZM54.5832 30.9811C53.4981 30.457 52.2574 30.382 51.1196 30.7718C50.596 30.966 50.1105 31.2544 49.686 31.6234C49.2296 31.9962 48.8208 32.4149 48.4456 32.8565C48.0396 33.3268 47.6756 33.8257 47.3564 34.3562C47.0264 34.917 46.7309 35.4984 46.4716 36.0968C46.2644 36.6216 46.046 37.1435 45.8276 37.6654C45.5924 38.2332 45.332 38.7923 45.136 39.3745C46.1568 39.368 47.1771 39.4264 48.1908 39.5494C48.0088 39.2167 47.8072 38.8927 47.6952 38.5285C47.5776 38.1615 47.5552 37.7686 47.5636 37.3872C47.5837 36.9908 47.6399 36.5972 47.7316 36.2115C47.7624 36.0624 47.7988 35.9104 47.8268 35.7613C47.8352 35.7241 47.8464 35.5377 47.8912 35.5233C47.8565 35.8477 47.8622 36.1753 47.908 36.4983C47.9416 36.7908 47.9836 37.089 48.0536 37.3758C48.179 37.9529 48.4661 38.4801 48.8796 38.8927C49.3037 39.2785 49.8193 39.5435 50.3748 39.6612C51.5228 39.9308 52.7772 39.6985 53.816 39.1709C54.8114 38.6704 55.6297 37.8645 56.1568 36.8653C56.7028 35.8158 56.9408 34.5598 56.5964 33.4071C56.2828 32.3719 55.5492 31.4715 54.5832 30.9811Z" fill="white"></path>
      <path d="M41.7452 25.6302C41.7424 25.5041 41.6724 25.4582 41.5576 25.4439L41.1096 25.3865C40.7937 25.3308 40.4692 25.3574 40.166 25.4639C39.606 25.6847 39.5528 26.502 39.5612 27.0124V27.1214L39.6704 27.1443C39.7404 27.1615 39.8104 27.173 39.8832 27.1873C40.0293 27.2165 40.1771 27.2356 40.3256 27.2447C40.6336 27.2676 40.9416 27.2389 41.2216 27.1099L41.2916 27.0669C41.4712 26.8803 41.5938 26.6441 41.6444 26.3873C41.7004 26.1521 41.7508 25.8797 41.7452 25.6302Z" fill="white"></path>
      <path d="M29.834 44.5361C30.394 44.3153 30.45 43.5009 30.4416 42.9876L30.4388 42.8758C30.4021 42.8699 30.3656 42.8623 30.3296 42.8528L30.1168 42.8098C29.9704 42.7828 29.8227 42.7636 29.6744 42.7524C29.3692 42.7214 29.0613 42.7687 28.7784 42.8901L28.7112 42.9302C28.531 43.1172 28.4066 43.353 28.3528 43.6098C28.2968 43.8479 28.2492 44.1231 28.2548 44.3669C28.2576 44.493 28.3276 44.5389 28.4424 44.5561C28.5812 44.5693 28.7153 44.5897 28.8533 44.6107L28.8904 44.6164C29.2066 44.6702 29.5308 44.6426 29.834 44.5361Z" fill="white"></path>
    </g>
  </g>
  <defs>
    <clipPath id="clip0_1392_794">
      <rect width="70" height="70" fill="white"></rect>
    </clipPath>
  </defs>
</svg>
